<svg xmlns="http://www.w3.org/2000/svg" width="286.501" height="150.073" viewBox="0 0 286.501 150.073">
  <g id="Group_24" data-name="Group 24" transform="translate(-44 -598)">
    <g id="background-complete--inject-2" transform="translate(44 598)">
      <path id="elk1lb55osoyk" d="M664.142,125.586s-3.451-2.105-7.265,6.1a105.032,105.032,0,0,0-5.205,12.916s-1.028,1.725-2.225.665-2.889-4.128-4.854-3.5c-2.023.656-2.613,2.964-2.1,6.3s1.358,10.7,1.436,11.36-.268,1.651-1.2,1.04-6.382-6.237-8.908-3.492.413,11.814.735,12.8.12,1.432-.351,1.7-2.122-1.8-3.715-3.348-3.76-3.046-5.081-1.342-1.519,8.6,5.428,19.529l3.55,4.854,6.014-.553c12.8-1.965,17.857-6.646,18.27-8.763s-2.13-2.745-4.351-2.943-4.871-.087-4.978-.615.1-.954,1.053-1.379,9.717-4.173,10.125-7.884-7.43-4.091-8.491-4.4-.549-1.214,0-1.589,6.65-4.582,9.494-6.394,4.157-3.765,3.331-5.721c-.826-1.886-4.239-1.143-5.828-1.35s-.962-2.113-.962-2.113a103.106,103.106,0,0,0,6.295-12.412c3.665-8.284-.293-9.494-.293-9.494" transform="translate(-379.412 -100.903)" fill="#efeded"/>
      <path id="elqq7pgzpneok" d="M668.716,143.72s-.021.062-.07.177-.124.3-.215.516l-.85,1.961c-.743,1.7-1.833,4.165-3.191,7.2-2.716,6.068-6.538,14.414-10.79,23.619s-8.107,17.551-10.856,23.607l-3.249,7.17-.883,1.948c-.1.215-.182.384-.235.5a1.849,1.849,0,0,1-.087.169,1.471,1.471,0,0,1,.066-.177c.054-.124.124-.293.215-.512.2-.458.487-1.119.85-1.965.743-1.7,1.833-4.161,3.191-7.195,2.716-6.068,6.538-14.414,10.79-23.623s8.095-17.547,10.844-23.6c1.37-3.017,2.477-5.465,3.249-7.166l.888-1.948c.1-.219.177-.384.235-.508A1.047,1.047,0,0,1,668.716,143.72Z" transform="translate(-387.403 -111.694)" fill="#efeded"/>
      <path id="eli9bv6bxxed" d="M678.27,175.77a1.709,1.709,0,0,1,.169.413c.1.26.227.644.384,1.119.305.954.7,2.274,1.1,3.744l1.02,3.765c.124.45.227.826.314,1.139a1.578,1.578,0,0,1,.095.413,1.709,1.709,0,0,1-.169-.413c-.1-.26-.227-.644-.38-1.123-.3-.954-.673-2.283-1.077-3.752l-1.044-3.756-.318-1.135a1.864,1.864,0,0,1-.095-.413Z" transform="translate(-410.88 -130.514)" fill="#efeded"/>
      <path id="elco3b5u2mww" d="M687.09,196.023c0-.054,2.675-.982,6.014-2.064s6.064-1.936,6.08-1.882-2.675.982-6.014,2.064S687.107,196.076,687.09,196.023Z" transform="translate(-416.06 -140.088)" fill="#efeded"/>
      <path id="elmvq6rdu88ui" d="M669.72,234a2.187,2.187,0,0,1,.446-.037l1.205-.041c1.015-.037,2.423-.091,3.971-.211s2.947-.26,3.963-.376l1.2-.136a1.738,1.738,0,0,1,.446-.025,2.065,2.065,0,0,1-.413.1c-.281.054-.689.124-1.193.2-1.007.153-2.411.326-3.963.442s-2.964.149-3.987.144c-.508,0-.92,0-1.205-.021a1.713,1.713,0,0,1-.466-.041Z" transform="translate(-405.86 -164.22)" fill="#efeded"/>
      <path id="elu2afukytn6" d="M656.6,213.54a1.678,1.678,0,0,1,.248.326c.149.215.363.532.619.929.516.788,1.214,1.886,1.973,3.1s1.441,2.328,1.924,3.137c.244.413.433.735.561.966a1.544,1.544,0,0,1,.186.367,1.421,1.421,0,0,1-.252-.326c-.149-.219-.359-.532-.619-.929-.512-.788-1.209-1.886-1.973-3.108s-1.441-2.328-1.924-3.137c-.239-.413-.413-.735-.561-.962a1.7,1.7,0,0,1-.182-.367Z" transform="translate(-398.155 -152.693)" fill="#efeded"/>
      <path id="elrb53tt2k2co" d="M637.5,241.2a2.446,2.446,0,0,1,.318.413l.8,1.189c.66,1.007,1.569,2.406,2.559,3.959s1.878,2.968,2.51,4l.743,1.238a2.973,2.973,0,0,1,.248.462,2.5,2.5,0,0,1-.318-.413l-.793-1.189c-.665-1.011-1.573-2.411-2.563-3.963s-1.874-2.968-2.51-4c-.3-.487-.545-.9-.739-1.238a2.478,2.478,0,0,1-.252-.458Z" transform="translate(-386.939 -168.936)" fill="#efeded"/>
      <path id="elajhd6823j1t" d="M654.65,265.658a2.649,2.649,0,0,1,.557-.066l1.527-.107c1.288-.091,3.071-.223,5.032-.413s3.715-.413,5.015-.59l1.515-.2a3.127,3.127,0,0,1,.561-.05,2.789,2.789,0,0,1-.549.128c-.355.07-.871.161-1.507.264-1.28.211-3.05.458-5.015.656s-3.752.31-5.044.363c-.648.025-1.168.041-1.531.041A3.3,3.3,0,0,1,654.65,265.658Z" transform="translate(-397.01 -182.46)" fill="#efeded"/>
      <path id="elhedte5kzwzt" d="M69.415,131.474c9.63-6.427,11.971-18.575,11.777-29.551-.037-1.833.2-3.756-.66-5.366s-2.889-2.749-4.569-2c-1.383.619-2.01,2.192-2.8,3.488a10.827,10.827,0,0,1-4.413,4.033,4.176,4.176,0,0,1-3.81.281c-1.585-.892-1.742-3.075-1.7-4.9l.223-10.171a16.777,16.777,0,0,0-.475-5.416,5.668,5.668,0,0,0-3.533-3.868,3.48,3.48,0,0,0-4.33,2.229,16.543,16.543,0,0,0-.087,2.266,1.878,1.878,0,0,1-1.164,1.783,2.248,2.248,0,0,1-2.01-.863,24.364,24.364,0,0,1-4.3-6.6,33.932,33.932,0,0,0-4-6.827,10.021,10.021,0,0,0-6.7-3.843c-2.638-.19-5.473,1.383-6.192,3.93s.768,5.18,2.386,7.281a40.923,40.923,0,0,0,8.45,8.161,3.342,3.342,0,0,1,1.412,1.54c.38,1.238-.8,2.406-2.023,2.79a23.135,23.135,0,0,1-4.309.413c-1.42.144-3.009.747-3.575,2.064-.78,1.849.764,3.822,2.3,5.123a35.375,35.375,0,0,0,10.319,6.1,11.934,11.934,0,0,1,3.847,1.919,3.341,3.341,0,0,1,1.036,3.872c-.681,1.271-2.386,1.651-3.8,1.379a24,24,0,0,1-4.02-1.585c-2.522-.982-5.779-.859-7.451,1.28a5.7,5.7,0,0,0-.7,5.081,13.3,13.3,0,0,0,2.724,4.541,35.5,35.5,0,0,0,14.976,10.732c5.845,2.105,11.281,2.724,17.155.7" transform="translate(-30.49 -66.133)" fill="#efeded"/>
      <path id="elww50nqn1fh" d="M72.8,133.739c-1.548-5.552-5.779-18.616-8.317-24.767L62.6,104.431c-.623-1.49-1.238-2.964-1.936-4.371a81.7,81.7,0,0,0-4.458-7.843c-1.544-2.435-3.1-4.689-4.541-6.79s-2.889-4.02-4.243-5.725a64.954,64.954,0,0,0-7.017-7.558c-.9-.826-1.61-1.445-2.1-1.858l-.586-.5c-.128-.1-.2-.153-.2-.153s.058.062.177.173l.545.487c.475.413,1.181,1.057,2.064,1.895a68.933,68.933,0,0,1,6.935,7.6c1.346,1.709,2.741,3.641,4.206,5.738s3,4.359,4.541,6.79a81.924,81.924,0,0,1,4.429,7.843c.689,1.4,1.3,2.889,1.928,4.363s1.238,3.009,1.886,4.541c2.522,6.142,6.765,19.194,8.326,24.73" transform="translate(-34.618 -68.186)" fill="#efeded"/>
      <path id="el9vykhdsudbu" d="M93.38,114.858a4.128,4.128,0,0,0,.182-.776c.1-.5.223-1.238.363-2.138.285-1.808.594-4.318.929-7.087s.685-5.267,1.007-7.067c.157-.9.293-1.626.413-2.126a4.74,4.74,0,0,0,.128-.784,4.168,4.168,0,0,0-.231.76c-.136.5-.3,1.238-.483,2.118-.4,1.791-.772,4.3-1.106,7.079s-.623,5.23-.846,7.1c-.111.867-.206,1.589-.281,2.146A4.631,4.631,0,0,0,93.38,114.858Z" transform="translate(-67.42 -83.014)" fill="#efeded"/>
      <path id="elwowfd5h3if8" d="M36.12,131.824a.88.88,0,0,0,.244.041l.7.07c.611.062,1.49.144,2.572.281,2.167.256,5.151.722,8.421,1.379s6.192,1.4,8.3,1.985c1.053.289,1.9.545,2.477.718l.677.2a.826.826,0,0,0,.239.054.826.826,0,0,0-.223-.1c-.182-.07-.413-.153-.66-.248-.574-.206-1.416-.5-2.477-.826-2.093-.64-5.024-1.4-8.3-2.064s-6.241-1.077-8.433-1.288c-1.086-.111-1.973-.165-2.584-.19h-.706A1,1,0,0,0,36.12,131.824Z" transform="translate(-33.796 -104.706)" fill="#efeded"/>
      <path id="el8atnwz979jq" d="M117.42,164.379a1.653,1.653,0,0,0,.161-.285l.413-.826c.355-.735.826-1.808,1.436-3.141,1.181-2.662,2.7-6.394,4.318-10.53s3.1-7.892,4.231-10.575l1.354-3.17c.149-.355.272-.64.367-.863a1.752,1.752,0,0,0,.111-.31,1.172,1.172,0,0,0-.161.285l-.413.826c-.355.735-.846,1.808-1.432,3.137-1.181,2.667-2.7,6.4-4.318,10.534s-3.108,7.876-4.243,10.559l-1.354,3.17-.363.863a1.4,1.4,0,0,0-.107.326Z" transform="translate(-81.537 -106.385)" fill="#efeded"/>
      <path id="el1i7tmcys8se" d="M41.49,181.22a1.65,1.65,0,0,0,.31.124l.912.31,3.36,1.127c2.836.949,6.737,2.307,11.042,3.818s8.223,2.84,11.075,3.744c1.424.45,2.584.8,3.385,1.036l.929.26a1.607,1.607,0,0,0,.33.074,1.762,1.762,0,0,0-.314-.128l-.912-.31-3.36-1.119c-2.836-.949-6.737-2.307-11.042-3.818s-8.218-2.844-11.071-3.744c-1.428-.45-2.584-.8-3.389-1.036l-.925-.264a1.73,1.73,0,0,0-.33-.074Z" transform="translate(-36.949 -133.714)" fill="#efeded"/>
      <path id="elfurh5gj9qcg" d="M489.581,70.369H541.62l-10.179,7.236v6.043A11.261,11.261,0,0,1,520.1,94.822H487.443A11.261,11.261,0,0,1,476.1,83.648h0A13.378,13.378,0,0,1,489.581,70.369Z" transform="translate(-292.162 -68.62)" fill="#efeded"/>
      <path id="el40lqg97zsjf" d="M533.7,89.787c0,.058-8.668.107-19.4.107s-19.4-.05-19.4-.107,8.668-.107,19.4-.107S533.7,89.725,533.7,89.787Z" transform="translate(-303.202 -79.96)" fill="#efeded"/>
      <path id="eldgvcl8newgi" d="M533.7,99.527c0,.058-8.668.107-19.4.107s-19.4-.05-19.4-.107,8.668-.107,19.4-.107S533.7,99.465,533.7,99.527Z" transform="translate(-303.202 -85.68)" fill="#efeded"/>
      <path id="el1hz2cpqpeik" d="M229.888,370.42H168.31l10.031,7.257v14.241a2.972,2.972,0,0,0,2.976,2.972h48.572a2.972,2.972,0,0,0,2.976-2.972V373.392a2.976,2.976,0,0,0-2.976-2.972Z" transform="translate(-111.421 -244.817)" fill="#efeded"/>
      <path id="el654qxm7774p" d="M252.254,394.647c0,.062-9.288.107-20.742.107s-20.742-.045-20.742-.107,9.283-.107,20.742-.107S252.254,394.59,252.254,394.647Z" transform="translate(-136.354 -258.98)" fill="#efeded"/>
      <path id="elw9otmlztq2q" d="M252.254,407.9c0,.058-9.288.107-20.742.107s-20.742-.05-20.742-.107,9.283-.107,20.742-.107S252.254,407.84,252.254,407.9Z" transform="translate(-136.354 -266.761)" fill="#efeded"/>
    </g>
    <g id="character-2--inject-2" transform="translate(188.974 637.774)">
      <rect id="elxp7a754qngb" width="104.09" height="90.679" rx="38.79" transform="translate(11.143 15.648)" fill="#407bff"/>
      <g id="elnpme38yt2e" transform="translate(11.143 15.648)">
        <g id="elmgdfc2doyu" opacity="0.4">
          <rect id="elboemzdtmdva" width="104.09" height="90.679" rx="38.79"/>
        </g>
      </g>
      <path id="elwu6ihoo9fn" d="M660.6,276.388l16.962.592-17.615,18.1Z" transform="translate(-554.345 -201.207) rotate(-2)" fill="#407bff"/>
      <g id="elnezpnav1rdg" transform="translate(116.738 52.259)">
        <g id="el6a3wi2oefxy" transform="translate(-1.526)" opacity="0.4">
          <path id="elh3vxpaaiof" d="M659.95,276.98H677.8L659.95,296.448Z" transform="translate(-659.853 -276.772)"/>
        </g>
      </g>
      <path id="elhgb152jf5hv" d="M390.355,279.554l-6.534-7.43c-1.767-1.767-2.373-2.617-2.018-2.927.471-.413.268-.277,3.938,2.477,0,0-5.2-3.975-3.4-4a7.218,7.218,0,0,1,2.146,1.131c-1.288-1.094-1.651-1.833-1.4-2.184.413-.611,3.6,1.6,5.065,2.658a35.06,35.06,0,0,1-3.88-3.166c-.553-.743.565-.681,1.474-.371,1.02.347,6.654,3.224,8.322,3.967a1.077,1.077,0,0,0,1.552-.524,6.818,6.818,0,0,1,3.187-4.483c.71-.219,1.259.689.751,1.35a9.848,9.848,0,0,0-1.1,2.468,6.385,6.385,0,0,0-.334,2.118c0,.826.058,1.54.111,2.138l5.973,8.194-9.989,5.779Z" transform="translate(-381.705 -222.492)" fill="#eabaa8"/>
      <path id="elvqm86a4anj7" d="M389.989,278.887A11.857,11.857,0,0,1,387.4,277.1a12.1,12.1,0,0,1-2.332-2.113,12.07,12.07,0,0,1,2.592,1.783A12.267,12.267,0,0,1,389.989,278.887Z" transform="translate(-383.675 -228.549)" fill="#aa6550"/>
      <path id="elyld49kqsq28" d="M392.229,275.82a27.364,27.364,0,0,1-5.5-3.831,13.828,13.828,0,0,1,2.869,1.742A13.593,13.593,0,0,1,392.229,275.82Z" transform="translate(-384.652 -226.786)" fill="#aa6550"/>
      <path id="elrerey0s38ej" d="M394.821,272.845a24.133,24.133,0,0,1-5.255-3.558,24.129,24.129,0,0,1,5.255,3.558Z" transform="translate(-386.32 -225.198)" fill="#aa6550"/>
      <path id="elz91mrde0sk8" d="M411.1,287l23.809,30.191-5.453,12.693s-6.53-1.445-8.512-4.194-18.286-33.022-18.286-33.022Z" transform="translate(-394.01 -235.605)" fill="#eabaa8"/>
      <path id="elymr3z3zy19" d="M561.837,184.68c1.713,1.486,1.709,4.1,1.511,6.361s-.351,4.83,1.214,6.472c1.292,1.354,3.632,1.944,3.93,3.789a2.126,2.126,0,0,1-3.513,1.928,3.678,3.678,0,0,1-1.106,4.161,2.527,2.527,0,0,1-3.773-1.152,1.87,1.87,0,1,1-3.67.669" transform="translate(-484.307 -175.52)" fill="#263238"/>
      <path id="elflgxzsh4gj" d="M499.894,193.026a2.258,2.258,0,1,1-4.169-1.738c.392-.859,1.321-1.478,1.412-2.419.107-1.135-1.053-1.948-2.064-2.444s-2.233-1.139-2.345-2.279.875-1.952,1.7-2.687,1.651-1.874,1.127-2.852c-.26-.5-.8-.788-1.152-1.238a2.457,2.457,0,0,1,.619-3.3,4.591,4.591,0,0,1,3.579-.656,32.515,32.515,0,0,1,3.583,1.09,14.947,14.947,0,0,0,11.9-1.56" transform="translate(-446.895 -168.626)" fill="#263238"/>
      <path id="elfmqydnfxdpm" d="M512.433,218.036a8.289,8.289,0,0,0,9.737-6.357l5.857-26.855a11.917,11.917,0,0,0-9.193-14.406l-.611-.091a12,12,0,0,0-13.436,9.184c-1.3,5.667-2.671,11.946-3.083,15.029-.854,6.386,5.366,8.309,5.366,8.309l-1.119,5.366a8.289,8.289,0,0,0,6.472,9.808Z" transform="translate(-452.124 -167.016)" fill="#eabaa8"/>
      <path id="eli5xyzlf29zg" d="M512.055,202a.925.925,0,0,0,.743,1.048.879.879,0,0,0,1.057-.681.916.916,0,0,0-.739-1.048.883.883,0,0,0-1.061.681Z" transform="translate(-458.243 -185.278)" fill="#263238"/>
      <path id="eldnu5n7ucsk" d="M511.488,199.769c.095.136.859-.277,1.841-.128s1.622.739,1.746.636c.062-.045-.025-.277-.3-.549a2.526,2.526,0,0,0-1.379-.656,2.431,2.431,0,0,0-1.486.248C511.574,199.509,511.442,199.707,511.488,199.769Z" transform="translate(-457.911 -183.955)" fill="#263238"/>
      <path id="ell8hk5zs2rh9" d="M535.244,205.8a.92.92,0,0,0,.743,1.048.879.879,0,0,0,1.057-.685.916.916,0,0,0-.743-1.044.875.875,0,0,0-1.057.681Z" transform="translate(-471.86 -187.508)" fill="#263238"/>
      <path id="elshw9ffr31c9" d="M534.747,203.629c.095.132.859-.277,1.837-.128s1.626.739,1.75.636c.058-.045-.025-.277-.305-.549a2.527,2.527,0,0,0-1.379-.656,2.431,2.431,0,0,0-1.486.248C534.846,203.356,534.7,203.567,534.747,203.629Z" transform="translate(-471.569 -186.222)" fill="#263238"/>
      <path id="el4ztaxrcgx4a" d="M520.171,209.483a6.577,6.577,0,0,0-1.548-.52c-.248-.062-.475-.149-.491-.326a1.3,1.3,0,0,1,.272-.714q.491-.854,1.02-1.8a35.378,35.378,0,0,0,2.39-4.739,34.99,34.99,0,0,0-2.766,4.541l-.991,1.808a1.486,1.486,0,0,0-.272.966.636.636,0,0,0,.359.413,1.759,1.759,0,0,0,.413.12A6.581,6.581,0,0,0,520.171,209.483Z" transform="translate(-461.612 -185.331)" fill="#263238"/>
      <path id="elcpehxsn8ki" d="M535.5,194.566c.058.281,1.057.3,2.184.6s2.01.755,2.2.541c.083-.1-.041-.38-.376-.689a3.93,3.93,0,0,0-3.339-.871C535.7,194.256,535.478,194.455,535.5,194.566Z" transform="translate(-472.015 -181.035)" fill="#263238"/>
      <path id="el74bd4f97fc8" d="M513.358,192.934c.14.248.826.116,1.651.223s1.478.371,1.651.161c.087-.1,0-.343-.256-.6a2.423,2.423,0,0,0-2.683-.305C513.424,192.6,513.3,192.814,513.358,192.934Z" transform="translate(-459.006 -179.903)" fill="#263238"/>
      <path id="elh8sdu6on2g8" d="M551.31,181.618l.029.033a5.06,5.06,0,0,1,1.387,3.517v.128c0,1.858-.334,3.715-.33,5.552a8.36,8.36,0,0,0,1.519,5.238c.475.6,1.4,1.094,1.94.557a1.569,1.569,0,0,0,.351-.8c.982-4.338,2.749-8.053,3.414-12.643a3.909,3.909,0,0,0-1.143-3.385c-.859-.826-1.928-1.717-3.071-1.366s-2.815,2.146-3.769,2.889" transform="translate(-481.301 -171.815)" fill="#263238"/>
      <path id="elr9f0vfthfo" d="M557.7,211.78c.116-.033,4.569-.656,3.789,3.682s-4.953,2.662-4.953,2.534S557.7,211.78,557.7,211.78Z" transform="translate(-484.372 -191.405)" fill="#eabaa8"/>
      <path id="elawcqb2653ft" d="M560.451,218.822a1.357,1.357,0,0,0,.182.144.772.772,0,0,0,.565.116,1.9,1.9,0,0,0,1.164-1.523,2.544,2.544,0,0,0,0-1.119.891.891,0,0,0-.466-.681.388.388,0,0,0-.483.128c-.078.107-.066.2-.091.2s-.078-.087,0-.26a.479.479,0,0,1,.219-.239.582.582,0,0,1,.438-.037,1.086,1.086,0,0,1,.669.826,2.6,2.6,0,0,1,.045,1.238,2,2,0,0,1-1.436,1.676.826.826,0,0,1-.673-.239C560.438,218.925,560.434,218.826,560.451,218.822Z" transform="translate(-486.664 -193.634)" fill="#aa6550"/>
      <path id="el0bbp9jxkunxu" d="M525.207,170.092c1.329-1.589-1.238-4.52-3.3-5.515s-5.036-.359-7.281.037a11.922,11.922,0,0,1-4.264.413,9.61,9.61,0,0,1-2.658-1.11,7.2,7.2,0,0,0-2.7-.945,2.658,2.658,0,0,0-2.506,1.119,1.666,1.666,0,0,0,.776,2.386,2.163,2.163,0,1,0-1.152,3.88c-.549-.561-1.614.078-1.651.863a2.286,2.286,0,0,0,1.238,1.866,8.236,8.236,0,0,0,5.824.764c1.973-.355,3.864-1.09,5.828-1.494s5.263-1.172,7.038-.235c1.3.685,2.023,2.477,2.852,2.233a2.7,2.7,0,0,0,1.651-1.758,7.843,7.843,0,0,0,.277-2.477" transform="translate(-451.054 -162.761)" fill="#263238"/>
      <path id="ell0yr1qg7li8" d="M570.346,202.06a.669.669,0,0,0,.227-.1,1.292,1.292,0,0,0,.471-.537,1.894,1.894,0,0,0,.14-1.123,2.254,2.254,0,0,0-.776-1.271,5.655,5.655,0,0,0-1.564-.912,10.158,10.158,0,0,1-1.829-.883,3.649,3.649,0,0,1-1.325-1.721,6.036,6.036,0,0,1-.384-2.345c.041-1.651.5-3.2.611-4.656a6.156,6.156,0,0,0-.693-3.769,3.5,3.5,0,0,0-2.064-1.548,2.41,2.41,0,0,0-.706-.07.912.912,0,0,0-.244.037,3.6,3.6,0,0,1,.929.116,3.484,3.484,0,0,1,1.948,1.548,5.939,5.939,0,0,1,.627,3.67c-.145,1.424-.586,2.972-.636,4.669a6.19,6.19,0,0,0,.413,2.427,3.847,3.847,0,0,0,1.416,1.812,10.423,10.423,0,0,0,1.87.883,5.655,5.655,0,0,1,1.531.859,2.167,2.167,0,0,1,.76,1.181,1.792,1.792,0,0,1-.1,1.061A1.42,1.42,0,0,1,570.346,202.06Z" transform="translate(-487.701 -174.606)" fill="#455a64"/>
      <path id="elt9a29ixoa4c" d="M502.517,170.789a.746.746,0,0,0-.19-.1,1.6,1.6,0,0,0-.239-.095,2.064,2.064,0,0,0-.351-.087,2.613,2.613,0,0,0-2.188.669h0a3.5,3.5,0,0,0-.776,2.584,4.3,4.3,0,0,0,1.593,2.943,6.658,6.658,0,0,0,3.608,1.449,14.711,14.711,0,0,0,4.285-.26,19.367,19.367,0,0,0,6.315-2.444,19.225,19.225,0,0,1,2.609-1.35,6.934,6.934,0,0,1,2.477-.508,7.393,7.393,0,0,1,3.558.826,12.379,12.379,0,0,1,1.152.731,5.062,5.062,0,0,0-1.11-.826,7.281,7.281,0,0,0-3.6-.921,7.108,7.108,0,0,0-2.543.491,19.471,19.471,0,0,0-2.638,1.35,19.491,19.491,0,0,1-6.258,2.4,14.617,14.617,0,0,1-4.223.268,6.5,6.5,0,0,1-3.5-1.387,4.148,4.148,0,0,1-1.552-2.811,3.36,3.36,0,0,1,.71-2.477h0a2.563,2.563,0,0,1,2.089-.689,4.463,4.463,0,0,1,.78.248Z" transform="translate(-450.439 -167.178)" fill="#455a64"/>
      <path id="elalcn8rora0a" d="M513.716,162.49a2.476,2.476,0,0,0,.153.974,4.1,4.1,0,0,0,1.709,2.064,5.123,5.123,0,0,0,1.73.718,7.338,7.338,0,0,0,2.146.111,28.583,28.583,0,0,0,4.763-1.061,9.631,9.631,0,0,1,4.763-.272,6.192,6.192,0,0,1,3.236,2.1,6.435,6.435,0,0,1,1.238,2.328c.165.607.186.962.215.958a1.967,1.967,0,0,0,0-.256,5.129,5.129,0,0,0-.12-.722,6.225,6.225,0,0,0-1.2-2.406,6.311,6.311,0,0,0-3.3-2.2,9.623,9.623,0,0,0-4.867.256,29.674,29.674,0,0,1-4.726,1.073,7.273,7.273,0,0,1-2.093-.087,5.139,5.139,0,0,1-1.684-.669,4.128,4.128,0,0,1-1.709-1.957A5.873,5.873,0,0,1,513.716,162.49Z" transform="translate(-459.223 -162.49)" fill="#455a64"/>
      <path id="eljtgwbesp7x" d="M518.654,227.972a4.7,4.7,0,0,0,.334,1.238,1.515,1.515,0,0,0,.929.826,1.354,1.354,0,0,0,1.238-.376,2.191,2.191,0,0,0,.582-1.214c.066-.413,0-.929-.413-1.061a1.057,1.057,0,0,0-.508,0l-2.287.413" transform="translate(-462.052 -200.58)" fill="#aa6550"/>
      <path id="elq75fxgc5y9" d="M518.579,229.544a3.22,3.22,0,0,0,1.139.215,1.618,1.618,0,0,0,1.065-.487,1.717,1.717,0,0,0,.458-1.333,1.5,1.5,0,0,0-.083-.363c-.054-.111-.037-.1-.132-.116a1.44,1.44,0,0,0-.367.021l-.384.029c-.5.037-.941.066-1.317.087a3.93,3.93,0,0,1-1.238-.025,4.2,4.2,0,0,1,1.2-.248c.372-.054.826-.107,1.308-.165l.38-.041a3.716,3.716,0,0,1,.413-.037.516.516,0,0,1,.3.107.6.6,0,0,1,.169.252,1.791,1.791,0,0,1,.107.462,2.027,2.027,0,0,1-.59,1.622,1.845,1.845,0,0,1-1.308.508,1.709,1.709,0,0,1-.9-.252C518.661,229.664,518.566,229.561,518.579,229.544Z" transform="translate(-461.576 -200.419)" fill="#263238"/>
      <path id="elay24pcbkfht" d="M514.247,249.3a14.643,14.643,0,0,0,8.21.413s-3.055,2.563-8.627,1.581Z" transform="translate(-459.292 -213.467)" fill="#aa6550"/>
      <path id="elpdwixiql5ub" d="M506.173,385.026a4.79,4.79,0,0,1-.57-.438c-.177-.144-.413-.322-.665-.512s-.557-.413-.908-.64-.714-.475-1.139-.71-.875-.483-1.358-.731a21.183,21.183,0,0,0-6.737-2.014c-.541-.058-1.053-.124-1.536-.136s-.933-.033-1.342-.029-.784.025-1.11.037-.607.037-.826.062a4.349,4.349,0,0,1-.714.05,5.423,5.423,0,0,1,.706-.132,8.244,8.244,0,0,1,.826-.1c.326-.025.7-.07,1.115-.07s.867-.025,1.354,0,1.007.066,1.552.116a22.582,22.582,0,0,1,3.492.718,21.88,21.88,0,0,1,3.3,1.317c.483.256.949.491,1.358.755s.8.5,1.135.739.636.471.9.669.475.388.644.545A4.349,4.349,0,0,1,506.173,385.026Z" transform="translate(-444.869 -290.013)" fill="#fafafa"/>
      <path id="elvf5nh2ffj5f" d="M433.1,304.168l3.385-14.666c1.3-5.515,2.832-10.815,5.412-11.442v1.7l-1.106,41.9s-6.9,7.843-15.686,3.492c-2.749-1.366-7.764-10.963-7.764-10.963s-11.669-20.821-11.182-21.766,7.616-10.134,8.342-10.592Z" transform="translate(-396.056 -230.355)" fill="#407bff"/>
      <path id="el1t75l03ertf" d="M516.557,266.727c6.728,1.288,14.3,5.213,17.791,15.273,1.271,3.674,10.534,30.756,10.534,30.756l-15.8-.33-2.551-5.577,1.238,9.06,1.069,12.92-39.891.673.281-19.467.384-38.719s.446-.586,7.327-4.38C501.21,264.581,516.557,266.727,516.557,266.727Z" transform="translate(-444.682 -223.175)" fill="#407bff"/>
      <g id="elijuw38nzden" transform="translate(75.838 69.45)">
        <g id="elrswsr3purxl" opacity="0.2">
          <path id="elm5kpgat4m5" d="M565.446,330.74c.656,8.173,1.408,10.7,2.064,18.872a7.257,7.257,0,0,0,.413,2.27,2.477,2.477,0,0,0,1.651,1.507c1.164.235,2.675,1.077,3-.062l-1.1-7.872a15.527,15.527,0,0,0-1.09-3.323c-2.448-5.436-3.352-5.754-4.953-11.393" transform="translate(-565.43 -330.74)"/>
        </g>
      </g>
      <path id="elqm0evoqyro7" d="M508.3,264.7l.132-.85,1.276-8.157a.949.949,0,0,1,1.015-.8l15.706,1.313a1.8,1.8,0,0,1,1.651,1.932l-.351,4.739-4.9,6.4-7.063,1.1" transform="translate(-456.044 -216.751)" fill="#407bff"/>
      <path id="elsrq6c3q048" d="M489.037,315.81c.062,0,.107,6.39.107,14.27s-.045,14.27-.107,14.27-.107-6.39-.107-14.27S488.98,315.81,489.037,315.81Z" transform="translate(-444.67 -252.523)" fill="#263238"/>
      <path id="elwhrfe3wsz" d="M569.425,327.736s0-.029-.049-.091a1.653,1.653,0,0,1-.132-.281l-.479-1.086-1.721-4.008-5.61-13.254c-1.09-2.592-2.126-5.061-3.067-7.31a13.767,13.767,0,0,1-1.016-3.3,18.216,18.216,0,0,1-.272-3.013,12.152,12.152,0,0,1,.627-4.314l.128-.343.144-.289a2.534,2.534,0,0,1,.248-.438l.173-.256a.731.731,0,0,1,.066-.083,8.485,8.485,0,0,0-.681,1.436,12.483,12.483,0,0,0-.553,4.285,15.752,15.752,0,0,0,1.317,6.254l3.083,7.3,5.552,13.279,1.651,4.033.442,1.1.111.289A.5.5,0,0,1,569.425,327.736Z" transform="translate(-484.684 -237.173)" fill="#263238"/>
      <path id="elvt7iji2g0u" d="M517.236,271.49a5.166,5.166,0,0,1-.458.413,7.1,7.1,0,0,1-1.507.879,11.31,11.31,0,0,1-2.65.743,32.851,32.851,0,0,1-3.632.359c-1.354.058-2.832.033-4.417.062a20.44,20.44,0,0,0-4.995.611,9.2,9.2,0,0,0-4.7,2.77,6.484,6.484,0,0,0-1.3,2.576,5.515,5.515,0,0,0,.05,2.951,4.686,4.686,0,0,0,.689,1.321,3.48,3.48,0,0,0,1.115.941,2.427,2.427,0,0,0,1.379.289,1.886,1.886,0,0,0,1.214-.619,3.3,3.3,0,0,0,.611-2.613,4.289,4.289,0,0,0-.413-1.288,6.293,6.293,0,0,0-.731-1.11,7.777,7.777,0,0,0-4.235-2.506,8.995,8.995,0,0,0-4.33.05,11.87,11.87,0,0,0-3.3,1.416,15.786,15.786,0,0,0-2.2,1.651c-.565.5-.966.925-1.238,1.205l-.305.33a.761.761,0,0,1-.111.107,13.443,13.443,0,0,1,1.61-1.7,14.857,14.857,0,0,1,2.188-1.676,11.849,11.849,0,0,1,3.343-1.461,9.081,9.081,0,0,1,4.408-.074,7.929,7.929,0,0,1,4.347,2.555,6.471,6.471,0,0,1,.751,1.115,4.467,4.467,0,0,1,.413,1.35,4.333,4.333,0,0,1-.025,1.441,2.861,2.861,0,0,1-.632,1.342,2.093,2.093,0,0,1-1.346.689,2.613,2.613,0,0,1-1.5-.31,3.715,3.715,0,0,1-1.185-1,4.892,4.892,0,0,1-.727-1.387,5.7,5.7,0,0,1-.05-3.067,6.6,6.6,0,0,1,1.35-2.662,9.445,9.445,0,0,1,4.8-2.828,20.52,20.52,0,0,1,5.048-.586c1.589-.025,3.067,0,4.413-.037a33.064,33.064,0,0,0,3.62-.326,11.706,11.706,0,0,0,2.642-.7,7.543,7.543,0,0,0,1.511-.826c.165-.111.277-.215.359-.272A.855.855,0,0,1,517.236,271.49Z" transform="translate(-440.465 -226.497)" fill="#fafafa"/>
      <path id="eljofxnud2u4f" d="M577.371,311.809a.8.8,0,0,1-.177.029c-.116,0-.285.029-.508.037a16.347,16.347,0,0,1-1.87-.045c-.788-.058-1.721-.177-2.753-.322s-2.163-.3-3.36-.359a12.954,12.954,0,0,0-3.339.252,8.42,8.42,0,0,0-2.551.97,7.343,7.343,0,0,0-1.882,1.651.587.587,0,0,1,.091-.153,2.976,2.976,0,0,1,.3-.413,5.689,5.689,0,0,1,1.416-1.238,8.3,8.3,0,0,1,2.584-1.032,12.668,12.668,0,0,1,3.4-.272c1.209.062,2.345.227,3.377.38s1.957.289,2.737.363,1.42.107,1.857.111A5.566,5.566,0,0,1,577.371,311.809Z" transform="translate(-486.95 -249.636)" fill="#fafafa"/>
      <path id="el8b9qbed236q" d="M525.448,341.65a8.317,8.317,0,0,0-2.369-.2,12.853,12.853,0,0,0-2.753.491c-1.053.285-2.229.7-3.55,1.11a14.612,14.612,0,0,1-4.45.772,12.747,12.747,0,0,1-5.069-1.053,12.611,12.611,0,0,1-4.623-3.36,9.615,9.615,0,0,1-1.651-2.567,5.869,5.869,0,0,1-.475-3.1,4.512,4.512,0,0,1,1.465-2.762,3.216,3.216,0,0,1,1.391-.71,3.257,3.257,0,0,1,2.861.772,2.477,2.477,0,0,1,.743,1.284,2.505,2.505,0,0,1-.111,1.449,3.483,3.483,0,0,1-.772,1.185,6.154,6.154,0,0,1-2.266,1.441,6.923,6.923,0,0,1-1.238.343c-.206.037-.413.083-.615.111l-.615.074a13.4,13.4,0,0,1-4.5-.318,14.035,14.035,0,0,1-3.48-1.337,12.845,12.845,0,0,1-2.316-1.6l-.413-.359-.338-.343a5.729,5.729,0,0,1-.512-.553l-.3-.355a.853.853,0,0,1-.091-.124,1.028,1.028,0,0,1,.111.111l.31.339a6.136,6.136,0,0,0,.524.537l.343.334.413.351a13.034,13.034,0,0,0,2.316,1.556,14.034,14.034,0,0,0,3.455,1.3,13.262,13.262,0,0,0,4.454.289l.6-.074c.2-.033.413-.078.611-.116a6.683,6.683,0,0,0,1.209-.338,5.99,5.99,0,0,0,2.192-1.4,3.3,3.3,0,0,0,.727-1.119,2.365,2.365,0,0,0,.1-1.333,2.584,2.584,0,0,0-1.928-1.849,2.89,2.89,0,0,0-2.728.623,4.264,4.264,0,0,0-1.391,2.629,5.725,5.725,0,0,0,.454,2.984,9.585,9.585,0,0,0,1.6,2.514,12.441,12.441,0,0,0,4.541,3.3,12.66,12.66,0,0,0,4.991,1.057,14.514,14.514,0,0,0,4.408-.743c1.317-.413,2.477-.8,3.562-1.077a12.763,12.763,0,0,1,2.778-.458,8.238,8.238,0,0,1,1.028,0c.293.045.545.066.743.111l.45.111A.668.668,0,0,1,525.448,341.65Z" transform="translate(-444.946 -260.972)" fill="#fafafa"/>
      <path id="el57y4n97zk1u" d="M480.063,339.072c-.037,0-.227-.413-.627-1.106a10.773,10.773,0,0,0-4.4-4.107c-.7-.355-1.164-.512-1.152-.549a1.239,1.239,0,0,1,.338.078,6.723,6.723,0,0,1,.879.33,9.647,9.647,0,0,1,2.576,1.721,9.492,9.492,0,0,1,1.895,2.452,7.188,7.188,0,0,1,.413.85A1.282,1.282,0,0,1,480.063,339.072Z" transform="translate(-435.832 -262.799)" fill="#fafafa"/>
      <path id="elcj5kpz0lrqj" d="M445.284,352.734a.59.59,0,0,1-.066-.1c-.037-.07-.1-.182-.169-.31-.149-.272-.363-.681-.627-1.209a28.294,28.294,0,0,1-1.891-4.652,15.034,15.034,0,0,1-.59-3.422,10.676,10.676,0,0,1,.078-1.94,11.578,11.578,0,0,1,.487-2,8.726,8.726,0,0,1,2.423-3.665,5.932,5.932,0,0,1,4.4-1.548,3.269,3.269,0,0,1,2.171,1.057,2.667,2.667,0,0,1,.615,2.258,2.006,2.006,0,0,1-.586,1.02,2.39,2.39,0,0,1-1.007.549,2.972,2.972,0,0,1-2.159-.26,4.928,4.928,0,0,1-1.573-1.342,7.23,7.23,0,0,1-.995-1.68,7.43,7.43,0,0,1-.541-3.418,7.018,7.018,0,0,1,.826-2.745,7.166,7.166,0,0,1,1.3-1.734,6.738,6.738,0,0,1,1.061-.863c.128-.087.235-.14.305-.182l.107-.054s-.132.095-.388.272a7.5,7.5,0,0,0-1.028.883,7.343,7.343,0,0,0-1.238,1.73,6.934,6.934,0,0,0-.772,2.7,7.248,7.248,0,0,0,.561,3.344,7.133,7.133,0,0,0,.974,1.63,4.776,4.776,0,0,0,1.519,1.284,2.766,2.766,0,0,0,2.014.239,1.94,1.94,0,0,0,1.441-1.42,2.477,2.477,0,0,0-.57-2.064,3.054,3.054,0,0,0-2.031-.982,5.725,5.725,0,0,0-4.243,1.49,8.6,8.6,0,0,0-2.373,3.575,11.172,11.172,0,0,0-.491,1.961,10.694,10.694,0,0,0-.087,1.907,15.131,15.131,0,0,0,.561,3.389,30.179,30.179,0,0,0,1.816,4.656l.59,1.238c.062.132.111.239.153.322S445.284,352.734,445.284,352.734Z" transform="translate(-417.068 -258.794)" fill="#fafafa"/>
      <path id="el6xw7xt29rf7" d="M424.985,301.79a.984.984,0,0,1,.037.169,5.023,5.023,0,0,1,.062.5,10.551,10.551,0,0,1,0,1.853,11.781,11.781,0,0,1-6.654,9.671,10.613,10.613,0,0,1-1.73.665c-.206.066-.376.095-.487.124s-.173.033-.173.025a5.28,5.28,0,0,1,.636-.227,13.02,13.02,0,0,0,1.688-.722,12.082,12.082,0,0,0,6.571-9.552,13.43,13.43,0,0,0,.07-1.833,5.244,5.244,0,0,1-.021-.677Z" transform="translate(-401.867 -244.29)" fill="#fafafa"/>
      <path id="el99uemf1w4db" d="M593.966,345.147a6.034,6.034,0,0,0-1.593,1.453c-.413.533-.826,1.238-1.292,1.981a15.27,15.27,0,0,1-1.763,2.332,14.861,14.861,0,0,1-4.231,3.183,12.4,12.4,0,0,1-1.478.632,3.235,3.235,0,0,1-.57.165,3.156,3.156,0,0,1,.537-.244c.347-.153.85-.367,1.441-.689a15.892,15.892,0,0,0,4.128-3.191,15.688,15.688,0,0,0,1.754-2.291,21.56,21.56,0,0,1,1.341-1.973,5.214,5.214,0,0,1,1.185-1.094,2.582,2.582,0,0,1,.384-.211C593.917,345.16,593.966,345.139,593.966,345.147Z" transform="translate(-499.933 -269.749)" fill="#fafafa"/>
      <path id="elbqwdlak57hb" d="M528.968,268.254a.656.656,0,0,1-.19.05l-.549.1c-.479.078-1.172.182-2.027.3-1.717.231-4.095.5-6.732.7a33.464,33.464,0,0,1-3.715.132,10.535,10.535,0,0,1-3.009-.516,6.683,6.683,0,0,1-1.837-.929,4.518,4.518,0,0,1-.438-.351c-.091-.091-.136-.136-.132-.144s.215.165.615.413a7.369,7.369,0,0,0,1.837.85,10.7,10.7,0,0,0,2.972.462,36.739,36.739,0,0,0,3.715-.149c2.629-.194,5.007-.437,6.724-.632l2.035-.231a5.224,5.224,0,0,1,.731-.05Z" transform="translate(-457.242 -224.207)" fill="#263238"/>
      <path id="elb4w4gvajph4" d="M564.186,384.764a11.091,11.091,0,0,1-10.778,13.209l-31.268-.347.826-10.125,26.773-4.02" transform="translate(-464.171 -292.26)" fill="#b78876"/>
      <path id="el43w3ktx9iel" d="M501.248,390.6a28.955,28.955,0,0,1-3.566-1.511,11.657,11.657,0,0,0-5.49-1.065l-7.455.38a3.537,3.537,0,0,0,1.238,1.651c.78.413,5.457.545,5.457.545l-.239.244a5.366,5.366,0,0,1-3.715,1.626h-.714a6.928,6.928,0,0,1-1.556-.305l-1.837-.743c-.557-.248-1.143-.211-1.387.351s-.058,1.205,1.461,1.969c.846.413,3.992,1.515,3.992,1.515a7.4,7.4,0,0,0,.186,1.329c.136.458,1.37.916,1.37.916a16.445,16.445,0,0,0,1.1,1.965,11.22,11.22,0,0,0,2.456.85,10.6,10.6,0,0,0,5.874-.045l2.84-.85v-8.668" transform="translate(-440.538 -294.922)" fill="#eabaa8"/>
      <path id="eli2g4jjbdjjl" d="M498.73,406.583a8.449,8.449,0,0,1-3.76-.991c0-.049.826.264,1.87.533S498.735,406.521,498.73,406.583Z" transform="translate(-448.217 -305.242)" fill="#aa6550"/>
      <path id="elxe7olhx146" d="M500.61,411.441a1.907,1.907,0,0,1-1.048-.078,1.936,1.936,0,0,1-.941-.462,6.225,6.225,0,0,1,.991.285A6.716,6.716,0,0,1,500.61,411.441Z" transform="translate(-450.36 -308.362)" fill="#aa6550"/>
      <path id="el4kt3kcz3erw" d="M499.729,392.66a3.169,3.169,0,0,1-.574.615,9.188,9.188,0,0,1-1.626,1.238,6.407,6.407,0,0,1-1.9.735,2.745,2.745,0,0,1-.826.091,10.869,10.869,0,0,0,2.65-.987,12.67,12.67,0,0,0,1.63-1.168A4.694,4.694,0,0,1,499.729,392.66Z" transform="translate(-448.117 -297.651)" fill="#aa6550"/>
      <path id="elwr73htfjg3r" d="M529.539,379.573l-.76,11.451h29.452a11,11,0,0,0,5.676-1.573h0a11.013,11.013,0,0,0,5.135-11.558,33.88,33.88,0,0,0-1.9-6.353l-14.81,2.44.475,1.841Z" transform="translate(-468.071 -285.249)" fill="#407bff"/>
      <path id="elb3is3i35us6" d="M561.352,379.574a2.4,2.4,0,0,1-.3.066l-.863.157-3.183.528-10.468,1.651-10.48,1.606-3.178.462-.867.116a2.686,2.686,0,0,1-.305.025,1.459,1.459,0,0,1,.3-.07l.859-.153,3.17-.533,10.468-1.651,10.5-1.618,3.178-.462.867-.116A1.4,1.4,0,0,1,561.352,379.574Z" transform="translate(-469.791 -289.964)" fill="#263238"/>
      <path id="elgoul8ps7ohi" d="M558.414,400.914c-.054,0,.177-.826.206-2.175a9.408,9.408,0,0,0-.045-1.1,10.319,10.319,0,0,0-.182-1.238,11.528,11.528,0,0,0-.958-2.716,12.423,12.423,0,0,0-1.61-2.394l-.413-.483c-.14-.157-.293-.293-.433-.433-.276-.285-.57-.512-.826-.731-1.053-.826-1.8-1.238-1.775-1.275a3.189,3.189,0,0,1,.524.268,5.543,5.543,0,0,1,.594.359c.219.157.491.31.751.532a9.5,9.5,0,0,1,.85.718c.144.14.305.272.45.413l.45.487a12.11,12.11,0,0,1,1.651,2.423,11.435,11.435,0,0,1,.958,2.774,9.248,9.248,0,0,1,.165,1.275,7.835,7.835,0,0,1,0,1.115,7.255,7.255,0,0,1-.083.92,4.575,4.575,0,0,1-.12.681A3.474,3.474,0,0,1,558.414,400.914Z" transform="translate(-481.928 -295.132)" fill="#fafafa"/>
      <path id="elbp78rkdfl5j" d="M595.848,397.1a6.19,6.19,0,0,1-1.366-.161,7.07,7.07,0,0,1-1.527-.541,6.064,6.064,0,0,1-1.721-1.28,5.482,5.482,0,0,1-1.267-2.27,6.106,6.106,0,0,1-.219-1.445,5.615,5.615,0,0,1,.124-1.54,4.541,4.541,0,0,1,.611-1.515,3.426,3.426,0,0,1,1.238-1.181,3.071,3.071,0,0,1,1.73-.413,2.307,2.307,0,0,1,1.614.826,2.262,2.262,0,0,1,.545,1.738,2.064,2.064,0,0,1-1.016,1.453,4.838,4.838,0,0,1-3.253.446,6.79,6.79,0,0,1-5.742-6.505,4.88,4.88,0,0,1,.116-1.37,11.469,11.469,0,0,0-.033,1.366,7.017,7.017,0,0,0,1.176,3.476,6.737,6.737,0,0,0,4.508,2.861,4.661,4.661,0,0,0,3.112-.413,1.858,1.858,0,0,0,.916-1.3A2.155,2.155,0,0,0,593.425,387a2.852,2.852,0,0,0-1.606.367,3.715,3.715,0,0,0-1.754,2.551,5.415,5.415,0,0,0-.128,1.494,5.932,5.932,0,0,0,.2,1.4,5.3,5.3,0,0,0,1.205,2.217A6.023,6.023,0,0,0,593,396.3a7.252,7.252,0,0,0,1.494.566C595.357,397.061,595.852,397.069,595.848,397.1Z" transform="translate(-501.431 -292.178)" fill="#fafafa"/>
    </g>
    <g id="character-1--inject-2" transform="translate(60.635 613.033)">
      <path id="elnm2thh8j9qp" d="M176.717,114.47H102.958A16.255,16.255,0,0,0,86.7,130.725v26.286H70.79L86.7,172.924v17.869a16.255,16.255,0,0,0,16.255,16.255h73.759a16.255,16.255,0,0,0,16.255-16.255V130.725A16.255,16.255,0,0,0,176.717,114.47Z" transform="translate(-70.79 -109.55)" fill="#407bff"/>
      <path id="elhvyy0pcz3dw" d="M247.87,119.374c-.466,1.209.334,2.526,1.238,3.459s1.985,1.816,2.27,3.079c.235,1.061-.157,2.163-.062,3.244a15.425,15.425,0,0,0,1.032,3.158,10.355,10.355,0,0,1-.182,5.944,10.926,10.926,0,0,1-2.212,4.38,5.837,5.837,0,0,1-4.326,2.064,1.709,1.709,0,0,1-1.28-.462,2.064,2.064,0,0,1-.367-1.135,110.678,110.678,0,0,1,0-25.014" transform="translate(-172.075 -111.676)" fill="#263238"/>
      <path id="elhhl1erajdqn" d="M240.056,185.215a6.643,6.643,0,0,1,6.625,6.865,7.66,7.66,0,0,1,5.494,8.561,28.443,28.443,0,0,0-.85,3.6,16.669,16.669,0,0,0,.656,3.975,12.524,12.524,0,0,1-.718,7.166c-.566,1.366-1.622,2.778-3.1,2.819a3.055,3.055,0,0,1-2.477-1.457,7.682,7.682,0,0,1-1-2.819c-.64-3.228-.826-6.543-1.717-9.709s-2.625-6.287-5.486-7.892c-1.581-.892-3.48-1.313-4.739-2.621a5.147,5.147,0,0,1-.929-5.325,6.786,6.786,0,0,1,4.045-3.777" transform="translate(-165.133 -150.732)" fill="#263238"/>
      <path id="elokvizeudmnc" d="M191.358,113.209c-.041-1.536,1.375-2.72,2.8-3.3s3.017-.776,4.289-1.651a21.353,21.353,0,0,0,2.84-2.889,9.449,9.449,0,0,1,15.892,4.334c.549,2.184.173,4.768-1.548,6.221-2,1.684-4.953,1.309-7.525.784s-5.461-1.04-7.6.466a10.955,10.955,0,0,0-2.819,3.748,6.7,6.7,0,0,1-3.265,3.273c-1.49.516-3.517-.376-3.575-1.948" transform="translate(-141.292 -102.551)" fill="#263238"/>
      <path id="el1r8it4ksb7v" d="M203.48,124.127a2.567,2.567,0,0,0-2.291,2.609h0l1.531,34.673c.066,4.095,6.051,6.394,10.435,6.291h0c4.429-.1,4.569-2.274,4.627-6.171.091-6.505.083-8.949.087-8.912s5.593-.941,6.737-8.256c.565-3.628.371-9.581.054-14.447-.285-4.38-3.2-9.746-7.562-9.275Z" transform="translate(-147.363 -113.156)" fill="#ffbe9d"/>
      <path id="elhlcccllbtxu" d="M252.346,153.111a.937.937,0,0,1-.9.945.892.892,0,0,1-.966-.826.933.933,0,0,1,.9-.945.892.892,0,0,1,.966.826Z" transform="translate(-176.308 -131.754)" fill="#263238"/>
      <path id="ell73k0vho4ic" d="M249.673,149.275c-.116.124-.826-.413-1.833-.413s-1.746.512-1.858.388c-.054-.054.066-.277.388-.512a2.555,2.555,0,0,1,1.482-.458,2.477,2.477,0,0,1,1.461.466C249.623,148.99,249.73,149.221,249.673,149.275Z" transform="translate(-173.66 -129.404)" fill="#263238"/>
      <path id="elie7g8ytzsz" d="M228.9,153.111a.937.937,0,0,1-.9.945.892.892,0,0,1-.966-.826.933.933,0,0,1,.9-.945.892.892,0,0,1,.966.826Z" transform="translate(-162.537 -131.754)" fill="#263238"/>
      <path id="elq52jq47t8ck" d="M225.738,149.779c-.116.124-.826-.413-1.833-.413s-1.746.512-1.853.388c-.054-.054.062-.277.384-.512a2.568,2.568,0,0,1,1.482-.462,2.477,2.477,0,0,1,1.461.471C225.668,149.5,225.775,149.725,225.738,149.779Z" transform="translate(-159.607 -129.698)" fill="#263238"/>
      <path id="el3o0oegj02ve" d="M239.176,157.341a6.777,6.777,0,0,1,1.651-.3c.256-.029.5-.083.545-.256a1.35,1.35,0,0,0-.173-.764l-.768-1.957a33.312,33.312,0,0,1-1.717-5.118,33.6,33.6,0,0,1,2.126,4.953l.735,1.969a1.515,1.515,0,0,1,.136,1.007.652.652,0,0,1-.413.38,1.609,1.609,0,0,1-.413.058A6.541,6.541,0,0,1,239.176,157.341Z" transform="translate(-169.392 -129.797)" fill="#263238"/>
      <path id="el7589vhhz7t5" d="M227.683,194.478a18.575,18.575,0,0,1-9.783-2.588s2.382,5.011,9.688,4.309Z" transform="translate(-157.176 -155.013)" fill="#eb996e"/>
      <path id="elekj5d7x13wq" d="M234.529,174.187a1.812,1.812,0,0,0-1.651-.669,1.651,1.651,0,0,0-1.143.615,1.048,1.048,0,0,0-.074,1.2,1.209,1.209,0,0,0,1.321.33,3.773,3.773,0,0,0,1.284-.772,1.1,1.1,0,0,0,.289-.3.334.334,0,0,0,0-.376" transform="translate(-165.166 -144.216)" fill="#eb996e"/>
      <path id="elnx94bfzzqos" d="M232.439,171c.165,0,.169,1.086,1.106,1.857s2.1.652,2.109.826c0,.07-.26.215-.751.227a2.72,2.72,0,0,1-1.763-.607,2.374,2.374,0,0,1-.854-1.56C232.241,171.26,232.365,171,232.439,171Z" transform="translate(-165.618 -142.746)" fill="#263238"/>
      <path id="el5s6ch4n15qu" d="M225.459,145.837c-.1.277-1.106.149-2.287.293s-2.138.471-2.3.223c-.07-.116.095-.376.479-.64a4.012,4.012,0,0,1,3.492-.413C225.3,145.495,225.517,145.71,225.459,145.837Z" transform="translate(-158.915 -127.523)" fill="#263238"/>
      <path id="elvy86lf82dch" d="M249.118,142.178c-.177.227-.871,0-1.709,0s-1.54.157-1.7-.083c-.074-.116.037-.343.347-.561a2.477,2.477,0,0,1,2.745.078C249.118,141.831,249.2,142.066,249.118,142.178Z" transform="translate(-173.493 -125.221)" fill="#263238"/>
      <path id="elxv4qa9ffcb" d="M194.306,145.975a6.476,6.476,0,0,0,7.711-7.145c-.227-1.8-1.193-3.616-.57-5.317.826-2.241,3.967-2.931,4.8-5.172.483-1.3.05-2.823.6-4.1a4.877,4.877,0,0,1,3.009-2.332,12.589,12.589,0,0,0,3.575-1.552,2.808,2.808,0,0,0,1.007-3.438,69.141,69.141,0,0,0-15.95,3.876,6.18,6.18,0,0,0-3.15,2.039,6.467,6.467,0,0,0-.644,3.913C195,133.3,194,139.441,194.306,146" transform="translate(-143.287 -110.989)" fill="#263238"/>
      <path id="elxe09t2gij2" d="M187.792,139.621a.413.413,0,0,1-.12-.037,1.515,1.515,0,0,1-.334-.165,2.423,2.423,0,0,1-.908-1.073,3.6,3.6,0,0,1-.239-2.217,7.054,7.054,0,0,1,1.325-2.654,19.452,19.452,0,0,0,2.006-2.947,4.541,4.541,0,0,0,.483-1.882,6.262,6.262,0,0,0-.413-2.031,6.167,6.167,0,0,1-.433-2.2,4.953,4.953,0,0,1,2.373-3.987,5.68,5.68,0,0,1,2.407-.685,10.126,10.126,0,0,0,2.406-.413,3.141,3.141,0,0,0,1.692-1.523,11.674,11.674,0,0,0,.8-2.155,11.66,11.66,0,0,1,.826-2.064,7.805,7.805,0,0,1,2.737-3.075,5.919,5.919,0,0,1,3.463-.9,4.454,4.454,0,0,1,2.728,1.119,4.309,4.309,0,0,1,1.218,1.874,3.471,3.471,0,0,1,.169,1.4,2.117,2.117,0,0,1-.083.487,4.215,4.215,0,0,0,.041-.491,3.653,3.653,0,0,0-.206-1.375,4.285,4.285,0,0,0-3.876-2.865,5.779,5.779,0,0,0-3.36.9,7.628,7.628,0,0,0-2.658,3.013,11.368,11.368,0,0,0-.8,2.064,11.764,11.764,0,0,1-.826,2.192,3.753,3.753,0,0,1-.739.974,3.133,3.133,0,0,1-1.065.648,10.159,10.159,0,0,1-2.477.438,5.449,5.449,0,0,0-2.32.656,4.739,4.739,0,0,0-2.274,3.806,6.06,6.06,0,0,0,.413,2.138,6.319,6.319,0,0,1,.433,2.1,4.739,4.739,0,0,1-.512,1.957,19.951,19.951,0,0,1-2.043,2.96,6.918,6.918,0,0,0-1.329,2.588,3.5,3.5,0,0,0,.194,2.155,2.477,2.477,0,0,0,.859,1.077C187.627,139.564,187.8,139.6,187.792,139.621Z" transform="translate(-138.51 -106.691)" fill="#455a64"/>
      <path id="elns3nxgjrk5" d="M241.57,105.22a.677.677,0,0,1,.285.087,2.914,2.914,0,0,1,.689.413,3.538,3.538,0,0,1,.722,4.834,3.137,3.137,0,0,1-.537.6c-.149.124-.239.177-.248.165a10.259,10.259,0,0,0,.656-.826,3.562,3.562,0,0,0-.689-4.635A9.393,9.393,0,0,0,241.57,105.22Z" transform="translate(-171.076 -104.118)" fill="#455a64"/>
      <path id="eljmkj6ckda78" d="M263.01,207.592a6.141,6.141,0,0,0,.211-.776,3.575,3.575,0,0,0-.359-2.1,4.875,4.875,0,0,0-2.3-2.146,9.589,9.589,0,0,0-1.8-.64c-.644-.165-1.325-.3-2.006-.524a4.541,4.541,0,0,1-1.845-1.007,3.079,3.079,0,0,1-.871-1.75c-.111-.615-.149-1.2-.285-1.717a3.368,3.368,0,0,0-.665-1.313,3.794,3.794,0,0,0-1.767-1.2c-.491-.149-.784-.149-.784-.173a1.066,1.066,0,0,1,.211,0,3.434,3.434,0,0,1,.6.095,3.744,3.744,0,0,1,1.857,1.185,3.488,3.488,0,0,1,.722,1.366c.149.541.194,1.131.31,1.725a2.857,2.857,0,0,0,.826,1.651,4.392,4.392,0,0,0,1.763.954c.665.215,1.346.355,1.994.524a9.221,9.221,0,0,1,1.816.652,4.953,4.953,0,0,1,2.353,2.258,3.558,3.558,0,0,1,.305,2.184,2.584,2.584,0,0,1-.186.574A1,1,0,0,1,263.01,207.592Z" transform="translate(-176.343 -156.391)" fill="#455a64"/>
      <path id="el82lz0jq38h8" d="M190.545,149.826c-3.715-.991-6.893-4.611-8.19-8.214s-1.3-7.537-.962-11.351c.239-2.761.726-5.684,2.559-7.764,2.766-3.137,5.779-4.739,9.94-4.607" transform="translate(-135.629 -111.554)" fill="#263238"/>
      <path id="elsdca7wtxm0g" d="M212.411,204.8l-3.447-.867a1.961,1.961,0,0,0,.685-2.4,3.158,3.158,0,0,0-2.634-1.952l-15.71-1.775a1.238,1.238,0,0,0-1.317.776,4.977,4.977,0,0,0-.07,4.375h-.074l-3.03.6-5.135,45.3,33.633-1.573Z" transform="translate(-135.907 -158.48)" fill="#f5f5f5"/>
      <path id="eluznc7jn4tnp" d="M221.1,211.945a3.553,3.553,0,0,1-.632.124c-.413.066-1,.136-1.738.211a40.6,40.6,0,0,1-11.512-.574c-.727-.144-1.309-.277-1.709-.384a3.356,3.356,0,0,1-.615-.182,3.61,3.61,0,0,1,.632.1c.413.078.995.19,1.721.314a47.66,47.66,0,0,0,11.471.57c.735-.05,1.329-.1,1.742-.144a4.085,4.085,0,0,1,.64-.037Z" transform="translate(-149.536 -166.317)" fill="#263238"/>
      <path id="eloff2tcw3w4f" d="M207.32,225.133a12.35,12.35,0,0,1,1.176-1.957,12.209,12.209,0,0,1,1.358-1.837,12.2,12.2,0,0,1-1.181,1.957,12.038,12.038,0,0,1-1.354,1.837Z" transform="translate(-150.963 -172.307)" fill="#e0e0e0"/>
      <path id="elg3nnpcexyab" d="M229.569,227.4a23.648,23.648,0,0,1-2.819-3.509,12.007,12.007,0,0,1,1.494,1.688A11.637,11.637,0,0,1,229.569,227.4Z" transform="translate(-162.373 -173.804)" fill="#e0e0e0"/>
      <path id="el66276mxbv5w" d="M220.241,239.875a12.708,12.708,0,0,1-.508-2.254,11.893,11.893,0,0,1-.293-2.291,24.5,24.5,0,0,1,.8,4.545Z" transform="translate(-158.081 -180.522)" fill="#e0e0e0"/>
      <path id="elgzelj9ekvdt" d="M235.781,247.2a18.162,18.162,0,0,1-1.907,2.031,17.806,17.806,0,0,1-2.064,1.878,18.128,18.128,0,0,1,1.907-2.031A18.776,18.776,0,0,1,235.781,247.2Z" transform="translate(-165.344 -187.492)" fill="#e0e0e0"/>
      <path id="elqrxje3quczp" d="M209.449,260.5a9.572,9.572,0,0,1-3.579-3.793c.058-.037.689.954,1.684,2S209.49,260.448,209.449,260.5Z" transform="translate(-150.112 -193.075)" fill="#e0e0e0"/>
      <path id="elukcju38d4jj" d="M217.549,280.34c0,.062-.941.363-2.031.945s-1.886,1.193-1.928,1.139a6.006,6.006,0,0,1,1.829-1.333,5.878,5.878,0,0,1,2.13-.751Z" transform="translate(-154.645 -206.953)" fill="#e0e0e0"/>
      <path id="elawqepba7jd4" d="M231.81,273.677a4.058,4.058,0,0,1-.656-.706c-.38-.454-.887-1.1-1.416-1.841s-.974-1.428-1.284-1.94a4.1,4.1,0,0,1-.454-.85,4.741,4.741,0,0,1,.582.768l1.333,1.9,1.358,1.874A4.541,4.541,0,0,1,231.81,273.677Z" transform="translate(-163.107 -199.906)" fill="#e0e0e0"/>
      <path id="el8jp1p5sm7ot" d="M231.505,293.59a11.8,11.8,0,0,1-2.477.578,11.969,11.969,0,0,1-2.539.252,19.983,19.983,0,0,1,2.506-.462,21.367,21.367,0,0,1,2.51-.367Z" transform="translate(-162.22 -214.733)" fill="#e0e0e0"/>
      <path id="elfrwfpus38rj" d="M215.473,204.476c-.029,0,.169-.248.338-.685a3.64,3.64,0,0,0,.182-1.791,7.306,7.306,0,0,0-.532-1.763,3.329,3.329,0,0,1-.281-.727,2.444,2.444,0,0,1,.413.665,5.721,5.721,0,0,1,.607,1.791,3.356,3.356,0,0,1-.252,1.886A1.333,1.333,0,0,1,215.473,204.476Z" transform="translate(-155.579 -159.488)" fill="#e0e0e0"/>
      <path id="eluknvscy0vw" d="M231.1,203.32a3.76,3.76,0,0,1,.665,2.84c-.062,0-.07-.656-.256-1.436S231.057,203.353,231.1,203.32Z" transform="translate(-164.926 -161.725)" fill="#e0e0e0"/>
      <path id="elymxxkd0ov5o" d="M298.345,217.444l15.644-27.479,1.886-4.768s4.879-10.485,5.218-11.558c.392-1.238,1.081-1.337,1.527-1.164.693.277.916,1.309.611,2.378-.107.367-2,6.13-2,6.13a13.841,13.841,0,0,1,1.618-1.2c1.2-.826,3.4-.784,5.44-.058s2.543,1.11,2.3,1.911a1.065,1.065,0,0,1-.656.648,2.064,2.064,0,0,1-1.507.033c-3.277-1.115-4.73.363-4.73.363l-.244.623s2.477-.788,3.864.326a2.064,2.064,0,0,1,.512.594,2.712,2.712,0,0,1,1,4.565,1.127,1.127,0,0,1-1.238.314,1.383,1.383,0,0,1-.466-.541,2.386,2.386,0,0,0-.227-.31l-.933,1.651s-2.3,3.591-3.125,5.271l-10.773,28.7a7.6,7.6,0,0,1-9.907,4.4h0a7.6,7.6,0,0,1-3.814-10.827Z" transform="translate(-203.831 -143.574)" fill="#ffbe9d"/>
      <path id="elpmgtbde4ml" d="M340.27,206.621a1.573,1.573,0,0,0,1.812-.314c.5-.429.826-1.02,1.3-1.486,1.391-1.391,3.715-1.523,5.048-2.98.186-.2.351-.512.19-.735s-.458-.182-.706-.132l-6.4,1.267" transform="translate(-229.034 -160.325)" fill="#ffbe9d"/>
      <path id="elnyjw00f7lx" d="M341.539,202.026a2.744,2.744,0,0,1,.677-.206c.442-.111,1.086-.256,1.878-.413l2.79-.59.826-.169a1.3,1.3,0,0,1,.978.033.553.553,0,0,1,.206.582,1.094,1.094,0,0,1-.248.471,4.217,4.217,0,0,1-.722.636,24.894,24.894,0,0,1-3.166,1.531,4.727,4.727,0,0,0-1.214.826c-.33.318-.59.681-.863.991a2.3,2.3,0,0,1-1.7.954c-.491,0-.693-.244-.677-.248a1.919,1.919,0,0,0,.669.1,2.233,2.233,0,0,0,1.5-.978,13.289,13.289,0,0,1,.846-1.04,4.991,4.991,0,0,1,1.276-.916,26,26,0,0,0,3.108-1.527,4.186,4.186,0,0,0,.652-.574c.182-.2.244-.446.116-.516a1.3,1.3,0,0,0-.7.021l-.826.153-2.807.516c-.8.14-1.449.248-1.9.314A2.279,2.279,0,0,1,341.539,202.026Z" transform="translate(-229.057 -160.109)" fill="#eb996e"/>
      <path id="ela3a5ow2c9lf" d="M360.361,195.878a2.662,2.662,0,0,1,.735-.991,2.064,2.064,0,0,1,1.238-.413,5.333,5.333,0,0,1,1.651.272,8.392,8.392,0,0,0,1.676.38,2.7,2.7,0,0,0,1.4-.215,1.069,1.069,0,0,0,.6-.751.669.669,0,0,0,0-.351c-.025,0-.025.124-.087.33a1,1,0,0,1-.578.619,2.749,2.749,0,0,1-1.317.149,9.083,9.083,0,0,1-1.626-.413,5.276,5.276,0,0,0-1.709-.264,2.18,2.18,0,0,0-1.333.5,1.891,1.891,0,0,0-.557.78C360.352,195.75,360.344,195.874,360.361,195.878Z" transform="translate(-240.828 -156.14)" fill="#eb996e"/>
      <path id="elxr4b74vh2gi" d="M356.791,177.33a7.014,7.014,0,0,0-.388,1.143c-.244.793-.533,1.734-.854,2.774s-.64,1.973-.9,2.761a6.576,6.576,0,0,0-.343,1.156,5.868,5.868,0,0,0,.5-1.1c.272-.693.619-1.651.966-2.745s.615-2.064.788-2.8A5.752,5.752,0,0,0,356.791,177.33Z" transform="translate(-237.279 -146.463)" fill="#eb996e"/>
      <path id="elc69d6ymxtx5" d="M362.51,202.4a1.333,1.333,0,0,0,.38,0,1.119,1.119,0,0,1,.9.239.607.607,0,0,1,.144.578,3.113,3.113,0,0,1-.293.727,1.354,1.354,0,0,0-.153.949,1.16,1.16,0,0,0,.735.739,1.3,1.3,0,0,0,1.028-.1,1.606,1.606,0,0,0,.681-.665,5.312,5.312,0,0,0,.454-1.486,3.041,3.041,0,0,0,0-1.044.677.677,0,0,0-.144-.355c-.021,0,.033.132.054.367a3.642,3.642,0,0,1-.087,1,5.736,5.736,0,0,1-.479,1.408,1.292,1.292,0,0,1-1.436.648.916.916,0,0,1-.586-.578,1.139,1.139,0,0,1,.128-.788,3.414,3.414,0,0,0,.289-.788.784.784,0,0,0-.227-.731,1.177,1.177,0,0,0-1.032-.215A1.139,1.139,0,0,0,362.51,202.4Z" transform="translate(-242.094 -160.938)" fill="#eb996e"/>
      <path id="elv910s35f2ud" d="M368.949,204.874a.569.569,0,0,0-.07.338,1.044,1.044,0,0,0,.479.8,1.4,1.4,0,0,0,1.391,0,2.275,2.275,0,0,0,1.048-1.337,2.749,2.749,0,0,0,0-1.7,2.625,2.625,0,0,0-.764-1.156,2.477,2.477,0,0,0-.8-.479.755.755,0,0,0-.334-.074,4.466,4.466,0,0,1,1.015.677,2.588,2.588,0,0,1,.652,2.658,2.126,2.126,0,0,1-.929,1.218,1.238,1.238,0,0,1-1.193.033,1,1,0,0,1-.479-.673A3.05,3.05,0,0,1,368.949,204.874Z" transform="translate(-245.834 -160.521)" fill="#eb996e"/>
      <path id="eld0uhw5agl1e" d="M353.429,211.552a.986.986,0,0,0-.553-.169,2.27,2.27,0,0,0-1.436.343l.177.12a6.647,6.647,0,0,0,.116-.826,5.194,5.194,0,0,0-.413-2.79A12.876,12.876,0,0,1,351.5,211a7.305,7.305,0,0,1-.1.788l-.05.268.227-.153a2.386,2.386,0,0,1,1.3-.388C353.215,211.523,353.421,211.581,353.429,211.552Z" transform="translate(-235.523 -164.607)" fill="#eb996e"/>
      <path id="elo5e51qiqt1" d="M364.292,192.558c-.066,0,.025.5.462.875s.929.413.929.343-.392-.19-.768-.524S364.359,192.534,364.292,192.558Z" transform="translate(-243.13 -155.405)" fill="#eb996e"/>
      <path id="el0kcqcajm15x9" d="M246,263.888l16.367.161-2.745-11.876.921,2.241a11.273,11.273,0,0,0,10.431,7h0c5.176,0,8.755-3.851,10.943-8.54,5.118-10.963,10.051-28.618,10.051-28.618l-9.977-8.767c-7.224,13.663-14.01,25.526-14.01,25.526s-1.961-5.956-3.476-11.273-1.5-8.107-3.826-10.757c-3.579-4.078-8.668-5.09-13.407-6.311l-.178,22.059L246,263.888" transform="translate(-173.677 -167.215)" fill="#407bff"/>
      <path id="elzn49mvllgsn" d="M167.124,246.423l29.8,5.779,1.449,11.45H152.681a9,9,0,0,1-9.081-9.709c.656-8.346,1.37-18.625,1.915-22.971a29.613,29.613,0,0,1,3.372-9.907c2.307-4.342,10-9.907,16.738-10.2l1.275,28.387" transform="translate(-113.529 -166.158)" fill="#407bff"/>
      <g id="elwmkjilu59bn" transform="translate(30.043 44.736)">
        <g id="elcj8jxa5d9ls" opacity="0.4">
          <path id="elhuwdfethfyk" d="M246,263.888l16.367.161-2.745-11.876.921,2.241a11.273,11.273,0,0,0,10.431,7h0c5.176,0,8.755-3.851,10.943-8.54,5.118-10.963,10.051-28.618,10.051-28.618l-9.977-8.767c-7.224,13.663-14.01,25.526-14.01,25.526s-1.961-5.956-3.476-11.273-1.5-8.107-3.826-10.757c-3.579-4.078-8.668-5.09-13.407-6.311l-.178,22.059L246,263.888" transform="translate(-203.72 -211.952)"/>
          <path id="eldh68y63mxej" d="M167.124,246.458,194,251.386a2.815,2.815,0,0,1,2.241,2.184l2.13,10.142H152.681A9,9,0,0,1,143.6,254c.656-8.346,1.37-18.625,1.915-22.971a29.613,29.613,0,0,1,3.372-9.907c2.307-4.342,10-9.907,16.738-10.2l1.275,28.387" transform="translate(-143.572 -210.93)"/>
        </g>
      </g>
      <path id="el59w3dfyrxe" d="M182.253,257.98a1.164,1.164,0,0,1,0-.272v-3.67c0-2.423-.045-5.779-.231-9.465-.095-1.849-.215-3.608-.343-5.2a21.336,21.336,0,0,0-.6-4.194,6.006,6.006,0,0,0-1.313-2.477A9.36,9.36,0,0,0,179,232a3.2,3.2,0,0,1,.846.632,5.82,5.82,0,0,1,1.4,2.506,20.7,20.7,0,0,1,.644,4.235c.14,1.6.264,3.356.359,5.205.19,3.715.211,7.054.169,9.494-.025,1.214-.058,2.2-.087,2.889l-.045.78A1.031,1.031,0,0,1,182.253,257.98Z" transform="translate(-134.333 -178.566)" fill="#263238"/>
      <path id="elennkavg3my5" d="M221.78,302.395a4.54,4.54,0,0,0-1.086-.879,6.86,6.86,0,0,0-1.523-.607c-.615-.178-1.337-.314-2.134-.475-3.187-.652-7.583-1.556-12.454-2.477s-9.3-1.651-12.511-2.163l-3.8-.607-1.032-.173a2.241,2.241,0,0,1-.359-.074,2.126,2.126,0,0,1,.363.033l1.04.132c.9.12,2.2.3,3.81.541,3.216.479,7.653,1.189,12.528,2.1s9.271,1.837,12.445,2.522c.8.173,1.519.322,2.138.512a6.577,6.577,0,0,1,1.531.652,3.3,3.3,0,0,1,.826.66,1.649,1.649,0,0,1,.173.211A.38.38,0,0,1,221.78,302.395Z" transform="translate(-138.961 -215.526)" fill="#263238"/>
      <path id="elr8j16c6mcv" d="M176.407,294.94c0,.037-.549.165-1.4.512a12.417,12.417,0,0,0-1.445.71,12.929,12.929,0,0,0-1.606,1.131,12.632,12.632,0,0,0-1.37,1.387,11.66,11.66,0,0,0-.949,1.3c-.487.78-.71,1.309-.747,1.292a1.547,1.547,0,0,1,.128-.384,8.4,8.4,0,0,1,.487-.987,10.946,10.946,0,0,1,.929-1.346,10.63,10.63,0,0,1,3.055-2.563,9.834,9.834,0,0,1,1.482-.681,7.643,7.643,0,0,1,1.057-.31,1.374,1.374,0,0,1,.38-.058Z" transform="translate(-128.396 -215.526)" fill="#263238"/>
      <path id="ela7qkwqrqrb9" d="M276.7,271.843a1.773,1.773,0,0,1-.062-.285c-.033-.206-.078-.479-.132-.826-.116-.714-.268-1.746-.442-3.026-.347-2.555-.768-6.1-1.123-10.018s-.565-7.48-.681-10.059c-.058-1.288-.091-2.332-.107-3.055v-.826a1.544,1.544,0,0,1,0-.289,1.24,1.24,0,0,1,.033.289l.054.826c.045.743.1,1.779.177,3.046.153,2.576.392,6.13.743,10.047s.751,7.459,1.061,10.018c.153,1.263.281,2.291.371,3.034.037.343.07.615.095.826A1.175,1.175,0,0,1,276.7,271.843Z" transform="translate(-190.204 -185.296)" fill="#263238"/>
      <path id="elj7jrnp26gli" d="M301.026,289.115a2.97,2.97,0,0,1-.239-.272,7.926,7.926,0,0,1-.549-.826,10.877,10.877,0,0,1-1.465-6.258,6.953,6.953,0,0,1,.132-.978,1.375,1.375,0,0,1,.091-.351c.037,0-.041.512-.07,1.337a12.309,12.309,0,0,0,1.445,6.192C300.758,288.673,301.059,289.09,301.026,289.115Z" transform="translate(-204.65 -207.006)" fill="#263238"/>
      <path id="elxki2qkqqzwj" d="M165.744,252.332a.715.715,0,0,1-.153.033,3.855,3.855,0,0,1-.45.045,6.814,6.814,0,0,1-1.651-.132,11.76,11.76,0,0,1-2.349-.735c-.854-.355-1.763-.826-2.712-1.284a20.4,20.4,0,0,0-2.753-1.139,9.342,9.342,0,0,0-2.369-.466,7.686,7.686,0,0,0-2.217.252.5.5,0,0,1,.144-.066,2.886,2.886,0,0,1,.413-.145,5.664,5.664,0,0,1,1.651-.19,9,9,0,0,1,2.427.413,18.846,18.846,0,0,1,2.782,1.148c.954.471,1.853.933,2.7,1.292a12.621,12.621,0,0,0,2.3.768A10.265,10.265,0,0,0,165.744,252.332Z" transform="translate(-117.944 -188.257)" fill="#fafafa"/>
      <path id="elwp9w6116f8l" d="M192.024,255.35a14.723,14.723,0,0,1-2.427.52,13.873,13.873,0,0,1-2.477.31,14.724,14.724,0,0,1,2.427-.52,13.836,13.836,0,0,1,2.477-.31Z" transform="translate(-139.102 -192.278)" fill="#fafafa"/>
      <path id="el8rx48e6paem" d="M163.238,276.81a3.15,3.15,0,0,1-.6.26c-.392.153-.966.359-1.68.59a43.3,43.3,0,0,1-5.7,1.412c-1.131.2-2.217.343-3.207.442a13.013,13.013,0,0,1-2.65.07,4.54,4.54,0,0,1-1.717-.491,2.726,2.726,0,0,1-.413-.264.644.644,0,0,1-.128-.116,5.472,5.472,0,0,0,.574.305,4.735,4.735,0,0,0,1.7.413,13.652,13.652,0,0,0,2.613-.116c.987-.111,2.064-.26,3.191-.458a52.485,52.485,0,0,0,5.7-1.342c.718-.215,1.3-.413,1.7-.524A4.442,4.442,0,0,1,163.238,276.81Z" transform="translate(-115.624 -204.88)" fill="#fafafa"/>
      <path id="elmhalmj5vtu" d="M192.269,281.946a23.643,23.643,0,0,1-4.5.074,23.636,23.636,0,0,1,4.5-.074Z" transform="translate(-139.483 -207.841)" fill="#fafafa"/>
      <path id="elve6kpvpzzt8" d="M147.21,308.315a.826.826,0,0,1,.045-.223c.041-.165.1-.367.165-.619l.124-.446c.054-.161.124-.33.19-.516a12.543,12.543,0,0,1,.512-1.238l.334-.706c.12-.248.272-.487.413-.743a18.23,18.23,0,0,1,1.015-1.573,18.811,18.811,0,0,1,6.427-5.593,18.022,18.022,0,0,1,1.7-.788c.277-.1.532-.223.793-.305l.747-.235a11.723,11.723,0,0,1,1.3-.334c.194-.041.371-.087.537-.116l.462-.062.636-.078a.759.759,0,0,1,.223,0,.9.9,0,0,1-.219.054l-.627.12-.454.078-.533.132a12.811,12.811,0,0,0-1.284.363l-.735.248c-.256.087-.512.206-.78.314a18.412,18.412,0,0,0-1.676.8,21.025,21.025,0,0,0-3.488,2.419,21.251,21.251,0,0,0-2.889,3.116c-.371.537-.739,1.04-1.02,1.548-.144.252-.3.487-.413.731l-.347.693a12.381,12.381,0,0,0-.537,1.238c-.07.182-.144.351-.2.508l-.144.438-.2.607A.876.876,0,0,1,147.21,308.315Z" transform="translate(-115.665 -215.403)" fill="#fafafa"/>
      <path id="el7pczintvter" d="M188.34,296.92a7.43,7.43,0,0,0-1.692,2.13,10.261,10.261,0,0,0-.949,2.8,29.075,29.075,0,0,0-.413,3.628,26.056,26.056,0,0,1-.413,3.653,10.1,10.1,0,0,1-1.036,2.828,6.221,6.221,0,0,1-1.238,1.589,3.494,3.494,0,0,1-.433.343c-.1.07-.161.107-.165.1a7.248,7.248,0,0,0,1.725-2.105,10.286,10.286,0,0,0,.974-2.79,26.859,26.859,0,0,0,.413-3.628,26.8,26.8,0,0,1,.413-3.657,10.072,10.072,0,0,1,1.007-2.832,6.4,6.4,0,0,1,1.238-1.61,4.13,4.13,0,0,1,.413-.347A.739.739,0,0,1,188.34,296.92Z" transform="translate(-136.095 -216.689)" fill="#fafafa"/>
      <path id="elnug29k2ns9" d="M214.4,316.32c-.058,0,0-3.558.153-7.942s.31-7.938.367-7.938,0,3.558-.153,7.946S214.456,316.324,214.4,316.32Z" transform="translate(-155.107 -218.756)" fill="#fafafa"/>
      <path id="elaxrgxt7u3a7" d="M240.508,318.557a2.726,2.726,0,0,1-.182-.516,6.261,6.261,0,0,1-.169-.619c-.054-.244-.128-.52-.173-.826a14.668,14.668,0,0,1-.219-2.2,15.483,15.483,0,0,1,.826-5.345,14.859,14.859,0,0,1,.871-2.039c.136-.285.289-.524.413-.739a5.475,5.475,0,0,1,.347-.541,2.449,2.449,0,0,1,.326-.438c.037.021-.413.66-.954,1.787a16.368,16.368,0,0,0-1.651,7.31,16.978,16.978,0,0,0,.169,2.184C240.318,317.8,240.549,318.544,240.508,318.557Z" transform="translate(-170.013 -221.604)" fill="#fafafa"/>
      <path id="elkn1otpr7bp" d="M178.128,224.417c0,.033-.652-.252-1.725-.6a19.6,19.6,0,0,0-8.668-.768c-1.115.153-1.8.326-1.8.289a1.849,1.849,0,0,1,.466-.153,11.966,11.966,0,0,1,1.313-.285,17.551,17.551,0,0,1,8.743.772,13.383,13.383,0,0,1,1.238.508A2.019,2.019,0,0,1,178.128,224.417Z" transform="translate(-126.658 -173.085)" fill="#fafafa"/>
      <path id="eltjhscl986s" d="M259.623,268.454a11.23,11.23,0,0,1-1.531-.025c-.945-.037-2.25-.087-3.69-.12s-2.745-.054-3.69-.062a11.481,11.481,0,0,1-1.531-.054,1.852,1.852,0,0,1,.413-.05c.264,0,.648-.037,1.123-.05.945-.029,2.25-.037,3.694,0s2.749.111,3.715.19c.471.037.85.07,1.115.1a1.826,1.826,0,0,1,.384.066Z" transform="translate(-175.544 -199.747)" fill="#fafafa"/>
      <path id="el1kr0ta0lif8" d="M283.926,265.21c0,.037-.516.215-1.321.611a12.92,12.92,0,0,0-5.16,4.6c-.487.755-.722,1.259-.755,1.238a1.185,1.185,0,0,1,.132-.371,8.408,8.408,0,0,1,.5-.954,11.463,11.463,0,0,1,2.254-2.728,11.669,11.669,0,0,1,2.968-1.928,8.772,8.772,0,0,1,1-.38A1.509,1.509,0,0,1,283.926,265.21Z" transform="translate(-191.699 -198.068)" fill="#fafafa"/>
      <path id="el25tpbrf00dg" d="M264.479,233.047a6.146,6.146,0,0,0-2.1.293,14.1,14.1,0,0,0-2.118.941,17.159,17.159,0,0,1-2.617,1.176,10.662,10.662,0,0,1-5.172.334,9.281,9.281,0,0,1-1.523-.413,2.742,2.742,0,0,1-.533-.231,21.183,21.183,0,0,0,2.064.5,11.087,11.087,0,0,0,5.081-.392,18.666,18.666,0,0,0,2.6-1.148,13.061,13.061,0,0,1,2.159-.908,4.863,4.863,0,0,1,1.569-.227,2.95,2.95,0,0,1,.413.041C264.43,233.026,264.483,233.039,264.479,233.047Z" transform="translate(-176.273 -179.135)" fill="#fafafa"/>
      <path id="els8medvlsc6" d="M260.916,299.618a2.154,2.154,0,0,1-.479.227c-.157.066-.351.144-.582.219s-.491.173-.784.248a16.1,16.1,0,0,1-2.105.438,17.083,17.083,0,0,1-2.625.136,17.652,17.652,0,0,1-2.613-.293,15.722,15.722,0,0,1-2.064-.566c-.293-.091-.545-.2-.768-.293s-.413-.177-.57-.252a2.478,2.478,0,0,1-.466-.256c0-.037.7.293,1.853.656a17.224,17.224,0,0,0,2.064.512,17.015,17.015,0,0,0,5.176.157,17.337,17.337,0,0,0,2.089-.388C260.206,299.866,260.9,299.581,260.916,299.618Z" transform="translate(-174.769 -218.041)" fill="#fafafa"/>
      <path id="eljq2tefd63k" d="M297.179,302.468a.846.846,0,0,1-.161-.132,5.449,5.449,0,0,1-.413-.413,9.83,9.83,0,0,1-1.3-1.75,14.262,14.262,0,0,1-1.841-6.914,27.826,27.826,0,0,1,.937-7.129c.223-.892.413-1.61.566-2.1.07-.227.128-.413.173-.566s.066-.2.074-.194a.69.69,0,0,1-.033.2c-.033.157-.078.347-.132.578-.124.532-.293,1.238-.5,2.118a29.85,29.85,0,0,0-.863,7.083,14.616,14.616,0,0,0,1.738,6.831,11,11,0,0,0,1.238,1.771C296.985,302.249,297.191,302.451,297.179,302.468Z" transform="translate(-201.547 -208.673)" fill="#fafafa"/>
      <path id="el7nkkasxvrxl" d="M317.554,284.745a8.144,8.144,0,0,0-2.184-1.238,17.576,17.576,0,0,0-2.642-.689,29.3,29.3,0,0,1-3.3-.755,13.555,13.555,0,0,1-5.23-3.145,12.465,12.465,0,0,1-1.238-1.391c-.136-.173-.227-.318-.293-.413s-.095-.149-.087-.153a5.214,5.214,0,0,1,.446.512,14.345,14.345,0,0,0,1.276,1.333,14.006,14.006,0,0,0,5.189,3.05,31.713,31.713,0,0,0,3.265.768,16.922,16.922,0,0,1,2.658.739,6.32,6.32,0,0,1,1.626.908,3.267,3.267,0,0,1,.38.334C317.521,284.7,317.562,284.741,317.554,284.745Z" transform="translate(-206.9 -204.968)" fill="#fafafa"/>
      <path id="elp84ifu28h2" d="M331.391,254.3a3.084,3.084,0,0,1-.442-.384c-.136-.128-.3-.285-.508-.458s-.413-.38-.693-.578a18.934,18.934,0,0,0-1.915-1.358,19.223,19.223,0,0,0-5.267-2.254,19.841,19.841,0,0,0-2.307-.45c-.33-.054-.632-.074-.9-.1s-.5-.045-.681-.054a3.337,3.337,0,0,1-.582-.054,2.811,2.811,0,0,1,.582-.029,11.021,11.021,0,0,1,1.6.066,17.893,17.893,0,0,1,2.332.413,20.033,20.033,0,0,1,2.757.925,19.592,19.592,0,0,1,2.568,1.354,17.753,17.753,0,0,1,1.911,1.408,7.9,7.9,0,0,1,.677.611,6.612,6.612,0,0,1,.483.487A2.775,2.775,0,0,1,331.391,254.3Z" transform="translate(-216.016 -188.302)" fill="#fafafa"/>
      <path id="elo3ydjtmmuk" d="M254.667,216.542a3.08,3.08,0,0,1-.784.376,14.205,14.205,0,0,1-2,.619,14.387,14.387,0,0,1-2.064.33,2.89,2.89,0,0,1-.867,0c0-.066,1.309-.173,2.889-.549S254.642,216.48,254.667,216.542Z" transform="translate(-175.409 -169.486)" fill="#fafafa"/>
      <path id="elpegcth578fc" d="M278.334,331.47a1.147,1.147,0,0,1-1.263,1.457h0a1.143,1.143,0,0,1-.941-.826l-.351-1.3h.054a1.2,1.2,0,0,1-1.342,1.416h0c-.541,0-1.007-.788-1.164-1.205h0a2.246,2.246,0,0,1-2.1-1.007l-2.423-3.781-4.487-3.282,2.716-9.7,9.655,6.249c.38.3.438.413,1.04.978l6.233,5.734a2.3,2.3,0,0,1-2.287,0c-.982-.392-5.284-3.3-5.284-3.3l1.94,8.524" transform="translate(-184.435 -226.278)" fill="#ffbe9d"/>
      <path id="elfa7trb74wss" d="M278.259,338.07a1.975,1.975,0,0,1,.285.169l.322.223a1.949,1.949,0,0,1,.413.347,1.8,1.8,0,0,1,.33.557c.074.219.153.442.235.677l.528,1.552c.367,1.106.689,2.105.912,2.836a6.975,6.975,0,0,1,.318,1.193,7.059,7.059,0,0,1-.462-1.148c-.26-.718-.607-1.709-.974-2.811-.177-.549-.351-1.073-.512-1.556-.074-.239-.144-.466-.215-.681a1.754,1.754,0,0,0-.277-.524,2.14,2.14,0,0,0-.355-.347l-.3-.252C278.333,338.165,278.251,338.082,278.259,338.07Z" transform="translate(-192.62 -240.853)" fill="#eb996e"/>
      <path id="elo5210j0zbq" d="M286.422,342.685a1.849,1.849,0,0,1-.136-.413l-.31-1.106c-.264-.933-.615-2.225-1.065-3.632a13.033,13.033,0,0,0-1.486-3.438,2.984,2.984,0,0,0-.788-.788c-.227-.14-.371-.182-.367-.206a.277.277,0,0,1,.111.021,1.474,1.474,0,0,1,.3.111,2.712,2.712,0,0,1,.871.772,12,12,0,0,1,1.564,3.463c.454,1.4.784,2.716,1.007,3.661.111.471.194.854.248,1.123A1.452,1.452,0,0,1,286.422,342.685Z" transform="translate(-194.975 -237.934)" fill="#eb996e"/>
      <path id="el6znwnnty3xk" d="M292.762,342.286a1.84,1.84,0,0,1-.169-.433c-.1-.33-.231-.731-.384-1.205-.314-1.02-.731-2.431-1.181-3.992s-.826-2.931-1.135-4a1.923,1.923,0,0,0-.66-1.007,2.512,2.512,0,0,0-.413-.215.264.264,0,0,1,.124,0,1.015,1.015,0,0,1,.326.136,1.94,1.94,0,0,1,.755,1.028c.338,1.02.739,2.431,1.2,3.992s.846,2.984,1.123,4.012c.124.479.231.887.314,1.238A2.209,2.209,0,0,1,292.762,342.286Z" transform="translate(-198.822 -236.949)" fill="#eb996e"/>
    </g>
    <g id="message_icon" data-name="message icon" transform="translate(132 92)">
      <g id="Path_200" data-name="Path 200" transform="translate(61 528)" fill="#fff" stroke-linecap="round" stroke-linejoin="round">
        <path d="M 28.11654281616211 28.11654281616211 L 14.30827331542969 28.11654281616211 C 10.61995315551758 28.11654281616211 7.152393341064453 26.68023300170898 4.544353485107422 24.07219314575195 C 1.936313271522522 21.46415328979492 0.5000033378601074 17.9965934753418 0.5000033378601074 14.30827331542969 C 0.5000033378601074 10.61995315551758 1.936313271522522 7.152393341064453 4.544353485107422 4.544353485107422 C 7.152393341064453 1.936313271522522 10.61995315551758 0.5000033378601074 14.30827331542969 0.5000033378601074 C 17.9965934753418 0.5000033378601074 21.46415328979492 1.936313271522522 24.07219314575195 4.544353485107422 C 26.68023300170898 7.152393341064453 28.11654281616211 10.61995315551758 28.11654281616211 14.30827331542969 L 28.11654281616211 28.11654281616211 Z" stroke="none"/>
        <path d="M 14.30827331542969 1.000003814697266 C 10.75350379943848 1.000003814697266 7.411502838134766 2.384304046630859 4.897903442382812 4.897903442382812 C 2.384304046630859 7.411502838134766 1.000003814697266 10.75350379943848 1.000003814697266 14.30827331542969 C 1.000003814697266 17.86304473876953 2.384304046630859 21.20504379272461 4.897903442382812 23.71864318847656 C 7.411502838134766 26.23224258422852 10.75350379943848 27.61654281616211 14.30827331542969 27.61654281616211 L 27.61654281616211 27.61654281616211 L 27.61654281616211 14.30827331542969 C 27.61654281616211 10.75350379943848 26.23224258422852 7.411502838134766 23.71864318847656 4.897903442382812 C 21.20504379272461 2.384304046630859 17.86304473876953 1.000003814697266 14.30827331542969 1.000003814697266 M 14.30827331542969 3.814697265625e-06 C 22.21051406860352 3.814697265625e-06 28.61654281616211 6.406032562255859 28.61654281616211 14.30827331542969 C 28.61654281616211 17.50076293945312 28.61654281616211 28.61654281616211 28.61654281616211 28.61654281616211 C 28.61654281616211 28.61654281616211 19.01802444458008 28.61654281616211 14.30827331542969 28.61654281616211 C 6.406032562255859 28.61654281616211 3.814697265625e-06 22.21051406860352 3.814697265625e-06 14.30827331542969 C 3.814697265625e-06 6.406032562255859 6.406032562255859 3.814697265625e-06 14.30827331542969 3.814697265625e-06 Z" stroke="none"/>
      </g>
      <g id="Group_23" data-name="Group 23" transform="translate(14 27)">
        <g id="Ellipse_161" data-name="Ellipse 161" transform="translate(52 513)" stroke="#000" stroke-width="1">
          <circle cx="2.5" cy="2.5" r="2.5" stroke="none"/>
          <circle cx="2.5" cy="2.5" r="2" fill="none"/>
        </g>
        <g id="Ellipse_161-2" data-name="Ellipse 161" transform="translate(59 513)" stroke="#000" stroke-width="1">
          <circle cx="2.5" cy="2.5" r="2.5" stroke="none"/>
          <circle cx="2.5" cy="2.5" r="2" fill="none"/>
        </g>
        <g id="Ellipse_161-3" data-name="Ellipse 161" transform="translate(66 513)" fill="#030303" stroke="#000" stroke-width="1">
          <circle cx="2.5" cy="2.5" r="2.5" stroke="none"/>
          <circle cx="2.5" cy="2.5" r="2" fill="none"/>
        </g>
      </g>
    </g>
  </g>
</svg>
