<svg xmlns="http://www.w3.org/2000/svg" viewBox="0 0 400 300"><g id="_101_chatting" data-name="#101_chatting"><path d="M319.89,225.38H80.11a.5.5,0,0,1,0-1H319.89a.5.5,0,0,1,0,1Z" fill="#d1d3d4"/><path d="M116.69,98.33C99.24,111,97,137.47,96.48,157.35c-.45,18.69,3.73,36.5,7.62,54.73,3.81,17.83,18.28,27.55,35.54,31.55,25.63,6,53.72,6.64,79.77,3.77s26.74-28.56,24.12-49.58c-.72-5.8-4.81-9.45-9.23-12.6-5.45-3.88-10.28-8-14.11-13.59-12.34-18-13.07-39.21-21.31-58.69C192.35,97.52,177.81,86.78,161,87.32S128.28,89.9,116.69,98.33Z" fill="#fff"/><path d="M189.8,249.55a223.52,223.52,0,0,1-50.27-5.43c-25.3-5.87-33.5-20.6-35.92-31.93l-.82-3.84c-3.72-17.27-7.23-33.58-6.81-51,.23-9.25.85-21.28,3.76-32.32,3.28-12.46,8.72-21.32,16.66-27.09h0C128.65,89,145.83,87.31,161,86.82c16.38-.56,31.42,9.65,38.31,25.93,3.23,7.62,5.33,15.62,7.37,23.35,3.16,12,6.42,24.35,13.9,35.24,3.31,4.83,7.49,8.86,14,13.48,4.46,3.18,8.69,7,9.44,12.94,2.4,19.22.43,32.53-6,40.7-4.24,5.37-10.48,8.54-18.55,9.43A269.41,269.41,0,0,1,189.8,249.55ZM117,98.73c-16.77,12.19-19.49,37.74-20,58.63-.41,17.31,3.08,33.57,6.79,50.78l.82,3.84C107,223,115,237.4,139.75,243.15c24,5.56,51.5,6.85,79.6,3.75,7.8-.86,13.81-3.91,17.88-9.06,6.27-8,8.17-21,5.81-40-.7-5.61-4.76-9.2-9-12.25-6.59-4.69-10.85-8.8-14.23-13.72-7.57-11-10.86-23.5-14-35.55-2-7.7-4.12-15.66-7.32-23.23C191.69,97.24,177,87.31,161.06,87.82,146,88.31,129,90,117,98.73Z" fill="#231f20"/><path d="M162.44,196.9a84.16,84.16,0,0,1-9.29-.53h0a89.15,89.15,0,0,1-17.43-3.79c-7.74-2.51-12.94-5.37-16.84-9.27-5.93-5.93-8.19-13.93-9-19.59-2-13.12,0-27.6,1.44-35.06a35.56,35.56,0,0,1,17.41-24.53c6.27-3.65,13.75-6,22.86-7.2,9.54-1.25,16.41-.23,21.62,3.21,8.49,5.61,10.91,16.41,12.66,27l3,18c.73,4.48,1.73,10.62,5.27,13.53a21.86,21.86,0,0,0,4,2.4c2.44,1.24,5,2.53,6.39,5.32,1.76,3.46,2.5,9.3.69,13.1-2,4.21-6.07,7-9,8.69C186.46,193.93,174.94,196.9,162.44,196.9Zm-9.17-1.53c15.84,1.79,30.5-1,42.41-8.07,2.78-1.65,6.69-4.3,8.57-8.26,1.67-3.52,1-9-.68-12.22-1.28-2.5-3.55-3.65-6-4.88a21.84,21.84,0,0,1-4.17-2.52c-3.84-3.14-4.87-9.5-5.63-14.14l-3-18c-1.71-10.36-4.07-20.93-12.22-26.32-5-3.29-11.65-4.26-20.94-3-9,1.18-16.34,3.49-22.49,7.07a34.55,34.55,0,0,0-16.92,23.85c-1.38,7.4-3.4,21.76-1.44,34.73.83,5.52,3,13.3,8.77,19,3.78,3.79,8.85,6.57,16.44,9a87.92,87.92,0,0,0,17.24,3.74Z" fill="#d1d3d4"/><path d="M119.46,178.64a.49.49,0,0,1-.46-.31.5.5,0,0,1,.27-.65c7.48-3.09,12.45-2.36,12.66-2.33a.51.51,0,0,1,.42.57.51.51,0,0,1-.57.42c-.05,0-4.93-.71-12.13,2.26A.41.41,0,0,1,119.46,178.64Z" fill="#d1d3d4"/><polygon points="218.91 106.68 219.57 140.81 206.87 148 210.09 107.98 218.91 106.68" fill="#fff"/><path d="M206.87,148.5a.5.5,0,0,1-.5-.54l3.22-40a.49.49,0,0,1,.42-.45l8.83-1.3a.52.52,0,0,1,.4.11.48.48,0,0,1,.17.37l.66,34.13a.48.48,0,0,1-.25.44l-12.7,7.19A.45.45,0,0,1,206.87,148.5Zm3.68-40.08-3.11,38.68,11.63-6.58-.65-33.26Z" fill="#231f20"/><path d="M213.53,223.05S210.9,253,212,255s26.8,5.84,27.27,3.1-12.6-8.12-12.6-8.12l2.88-24.51" fill="#fff"/><path d="M235.34,259.48c-7.2,0-22.72-2.36-23.79-4.28S212.59,228,213,223a.5.5,0,1,1,1,.08c-1,11.48-2.33,30.22-1.61,31.62.93,1.23,17.38,4.24,24.28,3.74,1.84-.13,2.05-.49,2.06-.49.24-1.44-6.2-5-12.3-7.56a.49.49,0,0,1-.3-.52L229,225.37a.51.51,0,0,1,.56-.44.49.49,0,0,1,.43.56l-2.83,24.13c3.5,1.46,13,5.7,12.55,8.52-.14.79-1.13,1.05-1.87,1.18A15.51,15.51,0,0,1,235.34,259.48Z" fill="#231f20"/><path d="M175.5,230.91s-3.61,26.49-1.74,27.25,27.26,2,26.87-.26-12.94-6.49-12.94-6.49l4.53-25.82" fill="#fff"/><path d="M190.62,259.65c-7.3,0-16-.59-17.05-1-1.94-.79.07-17.74,1.44-27.78a.5.5,0,0,1,.56-.43.51.51,0,0,1,.43.57c-1.68,12.29-2.87,25.66-2,26.76,2.13.85,24.31,1.48,26.08.15-.52-1.25-6.83-4.06-12.58-6a.51.51,0,0,1-.33-.56l4.54-25.83a.51.51,0,0,1,.58-.41.5.5,0,0,1,.4.58l-4.46,25.41c3.4,1.17,12.47,4.49,12.87,6.73a.83.83,0,0,1-.34.81C199.83,259.39,195.54,259.65,190.62,259.65Z" fill="#231f20"/><path d="M203.47,177.8c.62,2.13,6,57.8,6,57.8h21.84s10.05-55.91,6.75-69.71c-2.27-9.5-12.59-14.14-23.09-11.06-15.63-.61-31.7-2.61-31.7-2.61Z" fill="#231f20"/><path d="M231.35,236.1H209.51a.5.5,0,0,1-.5-.46c-1.85-19-5.44-55-6-57.61l-20.09-25.5a.49.49,0,0,1,0-.55.49.49,0,0,1,.5-.25c.16,0,16.17,2,31.58,2.6a20.87,20.87,0,0,1,16.22,1.55,15.53,15.53,0,0,1,7.41,9.9c3.29,13.74-6.33,67.62-6.74,69.9A.51.51,0,0,1,231.35,236.1Zm-21.39-1h21c.9-5.13,9.77-56.17,6.68-69.09a14.38,14.38,0,0,0-6.94-9.27,19.92,19.92,0,0,0-15.52-1.43l-.16,0c-13-.51-26.51-2-30.54-2.47l19.42,24.63a.42.42,0,0,1,.08.18C204.55,179.73,209.41,229.42,210,235.1Z" fill="#231f20"/><path d="M144.5,155.21s-15.33,16.2-4.71,29,40.9-.66,40.9-.66l-7.56,50.29,22.18-.23s23.12-68.47,20.46-75.55-21.61-10.35-21.61-10.35Z" fill="#231f20"/><path d="M173.13,234.39a.52.52,0,0,1-.38-.17.52.52,0,0,1-.11-.4l7.42-49.41a89.53,89.53,0,0,1-15.74,4.83c-11.83,2.36-20.44.75-24.91-4.66-10.78-13,4.57-29.55,4.72-29.71a.48.48,0,0,1,.29-.15l49.67-7.45a.43.43,0,0,1,.16,0c.78.13,19.25,3.4,22,10.67s-19.5,73.08-20.45,75.88a.47.47,0,0,1-.46.34l-22.18.23Zm7.56-51.29a.49.49,0,0,1,.3.1.48.48,0,0,1,.19.47l-7.47,49.72,21.24-.22c8-23.72,22.4-69.44,20.35-74.88-2.45-6.51-19.82-9.78-21.14-10l-49.42,7.41c-1.36,1.52-14.3,16.48-4.56,28.26,10.26,12.42,40-.66,40.3-.8A.52.52,0,0,1,180.69,183.1Z" fill="#231f20"/><path d="M220.37,108.16c-1.22-13.22-5.79-15.94-5.79-15.94-3.7-13.69-21.74-10.7-21.74-10.7s-24.33,3.14-33.16,18.08c-5.85,9.89-.85,23.3-3.4,36.48-1.3,6.71-13.83,19.3-13.83,19.3l62.36-5s5.88-23.71,8.46-41.65Z" fill="#e3460b"/><path d="M207.54,97.23c-2.1-1.43-4.09-2.85-6.74-3.34-3.92-.72-8-.16-11.92-1-4.25-.93-8.43-2.89-12.43-4.58-1.17-.49-.62,1.55-1.33.49-2.48-3.72-.51-8.56.86-12.24a100.14,100.14,0,0,1,12.48-24.11c2.79-3.83,13.3-17.75,17.75-8.42-1-2.1,7.91-2.87,9.07-2.77,10.83.89,16.57,12.82,15.46,22.62-.81,7.11-3.08,13.64-2.21,20.92.38,3.21,1.17,6.54.17,9.61-1.21,3.7-4.95,6.22-8.81,6.69a17.2,17.2,0,0,1-11.06-3C208.39,97.81,208,97.52,207.54,97.23Z" fill="#fff"/><path d="M218.31,101.65a18.54,18.54,0,0,1-9.75-3.14l-1.3-.87-.32-.21a16.11,16.11,0,0,0-6.23-3,36.61,36.61,0,0,0-5.53-.45,34.23,34.23,0,0,1-6.41-.6,60.73,60.73,0,0,1-10.61-3.79l-1.9-.81c-.1,0-.14,0-.14,0s0,.15-.05.23-.17.58-.56.63-.67-.32-.8-.52c-2.53-3.78-.77-8.48.64-12.25l.16-.45a99.65,99.65,0,0,1,12.55-24.23c4.08-5.6,9.9-12.19,14.46-11.76a4.7,4.7,0,0,1,3.55,2.37c1.75-1.66,8.5-2.06,9.25-2a15.66,15.66,0,0,1,11,6,23.77,23.77,0,0,1,4.93,17.23c-.27,2.32-.69,4.6-1.1,6.81-.87,4.7-1.69,9.14-1.12,14,.07.58.16,1.17.24,1.76.38,2.68.77,5.45-.09,8.07-1.2,3.68-4.91,6.51-9.22,7A13.12,13.12,0,0,1,218.31,101.65Zm-42.19-14a1.33,1.33,0,0,1,.53.11l1.9.82A60.49,60.49,0,0,0,189,92.37a33.74,33.74,0,0,0,6.23.57,39.2,39.2,0,0,1,5.69.46,17.41,17.41,0,0,1,6.61,3.2l.31.21h0c.42.29.84.58,1.28.86,2.51,1.6,6.42,3.41,10.73,2.89,3.93-.47,7.31-3,8.39-6.34.79-2.4.41-5,.05-7.62-.08-.59-.17-1.19-.24-1.78-.59-5,.28-9.72,1.13-14.3.4-2.18.82-4.45,1.08-6.74a22.72,22.72,0,0,0-4.7-16.48,14.73,14.73,0,0,0-10.3-5.58c-1.23-.11-7.71.59-8.56,1.82a.18.18,0,0,0,0,.23h0a.5.5,0,0,1-.24.67.49.49,0,0,1-.66-.24h0c-.85-1.79-1.94-2.73-3.32-2.86-3.19-.29-8,3.74-13.56,11.36a98.91,98.91,0,0,0-12.42,24l-.17.45c-1.28,3.44-2.87,7.69-.95,11a.94.94,0,0,1,.4-.36A.85.85,0,0,1,176.12,87.7Z" fill="#231f20"/><path d="M225.71,66s-.43,11.3-5.16,18.11a11.88,11.88,0,0,1-11.91,5.18l-5.34,13.28s-2.67,6.82-10.57,2.43a15.4,15.4,0,0,1-7.88-12.73l8.88-24.82s11.62-1.63,14.32-10.74C208.05,56.66,217.09,66.6,225.71,66Z" fill="#fff"/><path d="M197.61,106.93a10.65,10.65,0,0,1-5.12-1.55,16.05,16.05,0,0,1-8.14-13.16.47.47,0,0,1,0-.17l8.88-24.82a.49.49,0,0,1,.4-.32c.11,0,11.33-1.71,13.92-10.39a.5.5,0,0,1,.36-.34.48.48,0,0,1,.48.15c.09.1,9,9.74,17.25,9.12a.51.51,0,0,1,.39.14.48.48,0,0,1,.15.38c0,.46-.49,11.52-5.25,18.38a12.5,12.5,0,0,1-12,5.45l-5.19,12.91a7.22,7.22,0,0,1-4,3.84A6.48,6.48,0,0,1,197.61,106.93ZM185.35,92.3A15,15,0,0,0,193,104.51c2.49,1.39,4.68,1.76,6.5,1.1a6.25,6.25,0,0,0,3.37-3.27l5.34-13.29a.48.48,0,0,1,.57-.3,11.27,11.27,0,0,0,11.39-5c4-5.76,4.88-15,5-17.29-7.4.2-14.8-6.73-16.91-8.87-2.92,7.91-12.32,9.92-14.17,10.24Z" fill="#231f20"/><path d="M199,67.53s-.4-10.87-7.36-6.91-2.78,13,1.54,14.14" fill="#fff"/><path d="M193.2,75.26h-.12c-2.65-.68-5.09-3.91-5.55-7.36a7.32,7.32,0,0,1,3.88-7.71c1.86-1,3.48-1.21,4.81-.47,3,1.69,3.29,7.56,3.3,7.8A.5.5,0,0,1,199,68a.49.49,0,0,1-.52-.48s-.24-5.55-2.79-7c-1-.56-2.29-.4-3.82.47a6.37,6.37,0,0,0-3.39,6.71c.41,3,2.56,5.94,4.81,6.52a.5.5,0,0,1-.13,1Z" fill="#231f20"/><path d="M215.41,82.07c-1.9,0-4.22-1.72-4.32-1.8a.5.5,0,0,1-.1-.7.51.51,0,0,1,.7-.1c.65.49,2.61,1.71,3.91,1.59.54-.38.06-4.29-1-8.36a.5.5,0,1,1,1-.26c.34,1.26,2,7.61.92,9.16a1,1,0,0,1-.75.45Z" fill="#231f20"/><path d="M212.39,85.18a9.55,9.55,0,0,1-5.65-1.74,10.4,10.4,0,0,1-4.08-6.07.5.5,0,0,1,.48-.52.51.51,0,0,1,.51.48,9.57,9.57,0,0,0,3.77,5.36c2.41,1.66,5.47,1.93,9.08.8a.5.5,0,1,1,.3,1A14.81,14.81,0,0,1,212.39,85.18Z" fill="#231f20"/><path d="M208.64,89.24s-7.45-2-11.11-4.64c0,0,.24,12.26,7,14.91Z" fill="#231f20"/><path d="M204.54,100a.57.57,0,0,1-.18,0c-7-2.75-7.32-14.86-7.33-15.37a.47.47,0,0,1,.27-.45.47.47,0,0,1,.52,0c3.54,2.59,10.88,4.53,11,4.55a.52.52,0,0,1,.32.26.53.53,0,0,1,0,.41L205,99.69A.51.51,0,0,1,204.54,100Zm-6.45-14.43c.22,2.83,1.29,10.9,6.18,13.27l3.7-9.28A43.88,43.88,0,0,1,198.09,85.58Z" fill="#231f20"/><ellipse cx="210.96" cy="69.3" rx="1.97" ry="1.12" transform="translate(77.46 246.74) rotate(-71.23)" fill="#231f20"/><ellipse cx="220.77" cy="72.64" rx="1.97" ry="1.12" transform="translate(80.95 258.29) rotate(-71.23)" fill="#231f20"/><path d="M203.1,143.35c-.24.41-6.51,9.82,5.39,9.06s23.06-28,26.24-30.76,10.06-13.13,10.33-15.64-7.8,2.39-7.8,2.39S207.86,135.06,203.1,143.35Z" fill="#fff"/><path d="M207.2,153c-3,0-5-.76-5.92-2.27-1.42-2.36.23-5.72,1.34-7.51l.48.18-.44-.25c4.75-8.27,33.06-34,34.26-35.07,2.05-1.25,6.79-3.93,8.19-3a1.06,1.06,0,0,1,.45,1.08c-.29,2.65-7.16,13.09-10.5,16-.81.7-2.36,3.43-4.15,6.59-5,8.87-13.47,23.73-22.39,24.3C208.06,152.93,207.62,153,207.2,153Zm37.11-47.18c-.95,0-3.89,1.3-6.79,3.06-.22.21-29.32,26.64-34,34.76h0l-.06.1c-.8,1.29-2.52,4.5-1.33,6.47.82,1.38,3,2,6.32,1.75,8.37-.54,16.64-15.1,21.58-23.79,2-3.51,3.43-6.05,4.37-6.85,3.06-2.63,9.9-12.93,10.16-15.31,0-.08,0-.13,0-.13A.42.42,0,0,0,244.31,105.77Z" fill="#231f20"/><polygon points="234.29 87.18 248.8 86.15 242.19 117.11 226.6 118.98 234.29 87.18" fill="#231f20"/><path d="M226.6,119.48a.52.52,0,0,1-.38-.17.49.49,0,0,1-.11-.45l7.7-31.8a.49.49,0,0,1,.45-.38l14.51-1a.5.5,0,0,1,.41.17.49.49,0,0,1,.11.43l-6.61,31a.5.5,0,0,1-.43.39l-15.59,1.88Zm8.09-31.83-7.44,30.75,14.53-1.75,6.4-29.95Z" fill="#231f20"/><path d="M239.37,106.32a25,25,0,0,0-1.24,5.54,2.52,2.52,0,0,0,.13,1.34,2.15,2.15,0,0,0,.82.79,9.29,9.29,0,0,0,5,1.07,4.38,4.38,0,0,0,2.57-.66,4,4,0,0,0,1.28-1.94,13.21,13.21,0,0,0,.51-6.21,11.85,11.85,0,0,0-.83-3,22,22,0,0,1-1.53-2.55l-.83,3C243,103.32,240.22,103.87,239.37,106.32Z" fill="#fff"/><path d="M243.73,115.56a9.2,9.2,0,0,1-4.91-1.15,2.58,2.58,0,0,1-1-1,2.79,2.79,0,0,1-.18-1.62,24.72,24.72,0,0,1,1.26-5.65c.9-2.61,3.71-3.27,6-3l.71-2.58h0a.5.5,0,0,1,1,.09,14.83,14.83,0,0,0,.84,1.36,9,9,0,0,1,.65,1,12.35,12.35,0,0,1,.87,3.16,13.64,13.64,0,0,1-.54,6.44,4.62,4.62,0,0,1-1.45,2.18,4.94,4.94,0,0,1-2.86.75Zm.3-11.49c-1.78,0-3.57.63-4.19,2.42h0a24.44,24.44,0,0,0-1.21,5.42,2,2,0,0,0,.08,1.07,1.56,1.56,0,0,0,.63.58,8.64,8.64,0,0,0,4.77,1,4.09,4.09,0,0,0,2.29-.56,3.59,3.59,0,0,0,1.1-1.71,12.59,12.59,0,0,0,.48-6,10.85,10.85,0,0,0-.79-2.9c-.05-.11-.35-.55-.56-.88l-.36-.54-.5,1.8a.5.5,0,0,1-.55.36A7.85,7.85,0,0,0,244,104.07Zm-4.66,2.25h0Z" fill="#231f20"/><path d="M161.89,121.41s15,37.7,22.24,36.9,32.93-25.41,39.29-31.45,16.86-14.65,18.83-18.85-.67-7.68-2.52-7.27-9.44,3.19-9.44,3.19,2.31-5.93,1.35-6.2-5.34,3-6.44,12.12l-35,24.25L181.65,111" fill="#fff"/><path d="M183.92,158.82c-7.51,0-21-33.38-22.5-37.23a.51.51,0,0,1,.29-.65.5.5,0,0,1,.64.29c4.08,10.26,15.78,36.59,21.53,36.59h.19c4.57-.5,17.45-10.81,38.3-30.64l.71-.68c1.67-1.59,3.6-3.32,5.64-5.16,5.47-4.93,11.67-10.52,13.08-13.53a5.46,5.46,0,0,0-.3-5.7,1.84,1.84,0,0,0-1.67-.87c-1.8.4-9.29,3.14-9.36,3.17a.5.5,0,0,1-.64-.65,21.41,21.41,0,0,0,1.55-5.53c-.92.26-4.68,3.4-5.68,11.69a.53.53,0,0,1-.21.35l-35,24.25a.52.52,0,0,1-.44.06.49.49,0,0,1-.31-.3l-8.54-23.07a.5.5,0,0,1,.94-.34l8.31,22.46,34.3-23.76c.84-6.58,3.5-10.5,5.54-11.87a2.06,2.06,0,0,1,1.5-.45.8.8,0,0,1,.48.41c.43.86-.44,3.6-1.11,5.44,2.15-.78,7-2.51,8.48-2.84a2.77,2.77,0,0,1,2.66,1.22,6.4,6.4,0,0,1,.43,6.76c-1.5,3.18-7.51,8.6-13.32,13.84-2,1.83-4,3.57-5.62,5.15l-.71.68c-7.84,7.44-31.67,30.11-38.88,30.9Z" fill="#231f20"/><path d="M208,195.15a.58.58,0,0,1-.19,0,.51.51,0,0,1-.28-.65c.12-.31,12.06-30.84,8.59-38a2.1,2.1,0,0,0-1.29-1.2.5.5,0,1,1,.28-1,3.07,3.07,0,0,1,1.91,1.72c3.66,7.5-8.06,37.49-8.56,38.76A.52.52,0,0,1,208,195.15Z" fill="#fff"/><path d="M212.61,116.16h-.08a.49.49,0,0,1-.41-.58,42.66,42.66,0,0,0,.29-13.21.5.5,0,0,1,1-.17,42.74,42.74,0,0,1-.3,13.55A.49.49,0,0,1,212.61,116.16Z" fill="#231f20"/><path d="M177.91,71.71c-3.42,7.7-9.44,22,4.41,23a11.24,11.24,0,0,0,8-2.59c4-3.4-.19-12-2.21-15.95" fill="#fff"/><path d="M183.14,95.25c-.29,0-.57,0-.86,0-3.88-.29-6.56-1.64-8-4-3.23-5.4.92-14.71,3.15-19.71a.5.5,0,1,1,.91.4c-2,4.5-6.16,13.84-3.21,18.79,1.24,2.07,3.66,3.26,7.2,3.52A10.72,10.72,0,0,0,190,91.75c3.88-3.27-.8-12.36-2.34-15.34a.5.5,0,0,1,.22-.67.49.49,0,0,1,.67.21c2.83,5.49,6.12,13.17,2.09,16.56A11.7,11.7,0,0,1,183.14,95.25Z" fill="#231f20"/><path d="M180.69,184.1a.51.51,0,0,1-.43-.24.5.5,0,0,1,.17-.69c.07,0,7-4.25,8.79-7a.5.5,0,0,1,.69-.15.51.51,0,0,1,.14.7c-1.94,3-8.81,7.15-9.1,7.33A.59.59,0,0,1,180.69,184.1Z" fill="#fff"/><path d="M258.58,79.47c-5-3.89-8.08-8.92-8.08-14.42,0-12.28,15.16-22.24,33.87-22.24s33.87,10,33.87,22.24S303.08,87.3,284.37,87.3a46,46,0,0,1-20.79-4.69l-10.7,2.74Z" fill="#fff"/><path d="M284.37,87.8a46.39,46.39,0,0,1-20.85-4.66L253,85.83a.5.5,0,0,1-.48-.83l5.31-5.48c-5-4.07-7.83-9.18-7.83-14.47,0-12.54,15.42-22.74,34.37-22.74s34.37,10.2,34.37,22.74S303.32,87.8,284.37,87.8Zm-20.79-5.69a.59.59,0,0,1,.22,0,45.26,45.26,0,0,0,20.57,4.64c18.4,0,33.37-9.75,33.37-21.75s-15-21.74-33.37-21.74S251,53.06,251,65.05c0,5.12,2.8,10.1,7.88,14a.49.49,0,0,1,.06.74l-4.47,4.62,9-2.31Z" fill="#231f20"/><circle cx="296.94" cy="64.02" r="3.18" fill="#231f20"/><path d="M296.94,67.7A3.68,3.68,0,1,1,300.62,64,3.68,3.68,0,0,1,296.94,67.7Zm0-6.36A2.68,2.68,0,1,0,299.62,64,2.68,2.68,0,0,0,296.94,61.34Z" fill="#231f20"/><circle cx="284.37" cy="64.02" r="3.18" fill="#231f20"/><path d="M284.37,67.7A3.68,3.68,0,1,1,288.05,64,3.67,3.67,0,0,1,284.37,67.7Zm0-6.36A2.68,2.68,0,1,0,287.05,64,2.68,2.68,0,0,0,284.37,61.34Z" fill="#231f20"/><circle cx="271.8" cy="64.02" r="3.18" fill="#231f20"/><path d="M271.8,67.7A3.68,3.68,0,1,1,275.47,64,3.68,3.68,0,0,1,271.8,67.7Zm0-6.36A2.68,2.68,0,1,0,274.47,64,2.68,2.68,0,0,0,271.8,61.34Z" fill="#231f20"/><path d="M283,181.1a9.77,9.77,0,0,1,1.12-5.25,37.66,37.66,0,0,0,2.35-3.32c1-2.14.3-4.64.54-7a8.65,8.65,0,0,1,2.45-5.2c1.22-1.24,2.8-2.09,4-3.38,1.92-2.12,2.47-5.09,3.56-7.74a19.34,19.34,0,0,1,7.67-9c-2.1,4.21,2.67,9.56.51,13.73-.68,1.32-2,2.29-2.49,3.69-1.21,3.38,2.82,7,1.53,10.4-.64,1.68-2.44,2.65-3.27,4.24-1.13,2.14-.25,4.74-.34,7.16-.12,3.34-2.16,6.33-4.57,8.63-1.5,1.45-3.17,2.69-4.8,4-1.94,1.56-2.76,3.19-4.47.69A21.5,21.5,0,0,1,283,181.1Z" fill="#d1d3d4"/><path d="M280.88,183c.62-2.58,1.07-5.38,0-7.82-1.19-2.76-4.15-4.7-4.5-7.69-.23-1.95.76-3.93.37-5.86s-2-3.24-3.26-4.66a19.57,19.57,0,0,1-5-11.94,29.8,29.8,0,0,0-4.8,7.94c-1,2.94-1,6.39.7,9a8.16,8.16,0,0,1,1.21,2c.59,1.9-1,3.68-1.88,5.48a6.32,6.32,0,0,0,.59,6.47c1.71,2.13,5,3,5.84,5.55a13.1,13.1,0,0,1,.29,2.94,8.63,8.63,0,0,0,6.22,7.41c2,.49,2-.31,2.34-2C279.45,187.49,280.33,185.29,280.88,183Z" fill="#d1d3d4"/><path d="M287.3,164.44c1.43-5,2-10.15,3.52-15.08a82.49,82.49,0,0,1,4.7-11.25l-6.16,2.59c-2,.84-4.11,1.82-5,3.75-1.62,3.35,1.29,7.66-.41,11a27.38,27.38,0,0,1-2.44,3.07c-1.81,2.54-1.53,6-.54,9,.43,1.27,2.3,7.85,4,6,.67-.74.73-3.47,1-4.47C286.33,167.5,286.86,166,287.3,164.44Z" fill="#d1d3d4"/><path d="M283.94,230.35c1.23-8.11,5.07-36.69,5.11-37l-1.06-.14c0,.29-3.88,28.86-5.1,37Z" fill="#d1d3d4"/><path d="M282.49,238h1.07c-.07-9.63-4.09-46.43-6.4-49l-.79.72C277.91,191.44,282.4,224.82,282.49,238Z" fill="#d1d3d4"/><path d="M280.41,236.17l1.06,0c-.91-20.76,3.49-64.35,3.53-64.79l-1.06-.11C283.9,171.66,279.49,215.33,280.41,236.17Z" fill="#d1d3d4"/><path d="M294.48,210.8H271.57L273.18,234a7.65,7.65,0,0,0,7.63,7.13h4.43a7.67,7.67,0,0,0,7.64-7.13Z" fill="#fff"/><path d="M285.24,241.62h-4.43a8.18,8.18,0,0,1-8.13-7.59l-1.6-23.19a.48.48,0,0,1,.13-.38.5.5,0,0,1,.36-.16h22.91a.5.5,0,0,1,.5.54L293.38,234A8.19,8.19,0,0,1,285.24,241.62ZM272.11,211.3,273.68,234a7.17,7.17,0,0,0,7.13,6.66h4.43a7.18,7.18,0,0,0,7.14-6.66L294,211.3Z" fill="#d1d3d4"/></g></svg>