<svg id="Capa_1" enable-background="new 0 0 512 512" height="512" viewBox="0 0 512 512" width="512" xmlns="http://www.w3.org/2000/svg"><g><circle cx="256" cy="256" fill="#0052be" r="256"/><path d="m256 0v512c141.385 0 256-114.615 256-256s-114.615-256-256-256z" fill="#00337a"/><g fill="#ff6b6b"><path d="m256 421c-90.981 0-165-74.019-165-165 0-65.544 38.856-124.886 98.991-151.179 7.59-3.32 16.434.144 19.753 7.734s-.144 16.434-7.734 19.753c-49.212 21.518-81.01 70.069-81.01 123.692 0 74.439 60.561 135 135 135s135-60.561 135-135c0-53.623-31.798-102.174-81.009-123.691-7.59-3.319-11.053-12.163-7.734-19.753 3.318-7.591 12.162-11.056 19.753-7.734 60.134 26.292 98.99 85.634 98.99 151.178 0 90.981-74.019 165-165 165z"/><path d="m256 221c-8.284 0-15-6.716-15-15v-120c0-8.284 6.716-15 15-15s15 6.716 15 15v120c0 8.284-6.716 15-15 15z"/></g><g fill="#ff1f3d"><path d="m322.009 104.821c-7.591-3.321-16.435.144-19.753 7.734-3.319 7.59.144 16.434 7.734 19.753 49.212 21.518 81.01 70.069 81.01 123.692 0 74.439-60.561 135-135 135v30c90.981 0 165-74.019 165-165 0-65.544-38.856-124.886-98.991-151.179z"/><path d="m271 206v-120c0-8.284-6.716-15-15-15v150c8.284 0 15-6.716 15-15z"/></g></g></svg>